<?xml version="1.0" encoding="utf-8"?>
<!-- Generator: Adobe Illustrator 24.1.3, SVG Export Plug-In . SVG Version: 6.00 Build 0)  -->
<svg version="1.1" xmlns="http://www.w3.org/2000/svg" xmlns:xlink="http://www.w3.org/1999/xlink" x="0px" y="0px"
	 viewBox="0 0 500 500" style="enable-background:new 0 0 500 500;" xml:space="preserve">
<style type="text/css">
	.st0{fill:#FAFDFF;}
	.st1{fill:url(#SVGID_1_);}
	.st2{fill:url(#SVGID_2_);}
	.st3{fill:url(#SVGID_3_);}
	.st4{fill:url(#SVGID_4_);}
	.st5{fill:#FFFFFF;}
	.st6{fill:url(#SVGID_5_);}
	.st7{clip-path:url(#SVGID_7_);}
	.st8{fill:url(#SVGID_8_);}
	.st9{fill:url(#SVGID_9_);}
	.st10{fill:url(#SVGID_10_);}
	.st11{fill:url(#SVGID_11_);}
	.st12{fill:url(#SVGID_12_);}
	.st13{fill:url(#SVGID_13_);}
	.st14{fill:url(#SVGID_14_);}
	.st15{fill:#77505B;}
	.st16{fill:url(#SVGID_15_);}
	.st17{fill:url(#SVGID_16_);}
	.st18{fill:url(#SVGID_17_);}
	.st19{fill:url(#SVGID_18_);}
	.st20{fill:url(#SVGID_19_);}
	.st21{fill:url(#SVGID_20_);}
	.st22{fill:url(#SVGID_21_);}
	.st23{fill:url(#SVGID_22_);}
	.st24{fill:url(#SVGID_23_);}
	.st25{fill:url(#SVGID_24_);}
	.st26{fill:url(#SVGID_25_);}
	.st27{fill:url(#SVGID_26_);}
	.st28{fill:url(#SVGID_27_);}
	.st29{fill:url(#SVGID_28_);}
	.st30{fill:none;stroke:url(#SVGID_29_);stroke-width:1.0165;stroke-linecap:round;stroke-miterlimit:10;}
	.st31{fill:url(#SVGID_30_);}
	.st32{fill:url(#SVGID_31_);}
	.st33{fill:url(#SVGID_32_);}
	.st34{fill:url(#SVGID_33_);}
	.st35{fill:url(#SVGID_34_);}
	.st36{fill:url(#SVGID_35_);}
	.st37{fill:url(#SVGID_36_);}
	.st38{fill:none;stroke:url(#SVGID_37_);stroke-width:3.2608;stroke-linecap:round;stroke-linejoin:round;stroke-miterlimit:10;}
	.st39{fill:none;stroke:url(#SVGID_38_);stroke-width:3.2608;stroke-linecap:round;stroke-linejoin:round;stroke-miterlimit:10;}
	.st40{fill:none;stroke:url(#SVGID_39_);stroke-width:3.2608;stroke-linecap:round;stroke-linejoin:round;stroke-miterlimit:10;}
	.st41{fill:url(#SVGID_40_);}
	.st42{fill:url(#SVGID_41_);}
	.st43{fill:url(#SVGID_42_);}
	.st44{fill:url(#SVGID_43_);}
	.st45{fill:url(#SVGID_44_);}
	.st46{fill:#9B4129;}
	.st47{fill:url(#SVGID_45_);}
	.st48{opacity:0.2;fill:url(#SVGID_46_);}
	.st49{fill:url(#SVGID_47_);}
	.st50{fill:url(#SVGID_48_);}
	.st51{fill:url(#SVGID_49_);}
	.st52{fill:url(#SVGID_50_);}
	.st53{fill:url(#SVGID_51_);}
	.st54{fill:url(#SVGID_52_);}
	.st55{fill:url(#SVGID_53_);}
	.st56{fill:url(#SVGID_54_);}
	.st57{fill:url(#SVGID_55_);}
	.st58{fill:url(#SVGID_56_);}
	.st59{fill:url(#SVGID_57_);}
	.st60{fill:url(#SVGID_58_);}
	.st61{fill:url(#SVGID_59_);}
	.st62{opacity:0.5;fill:url(#SVGID_60_);}
	.st63{opacity:0.5;fill:url(#SVGID_61_);}
	.st64{fill:url(#SVGID_62_);}
	.st65{fill:url(#SVGID_63_);}
	.st66{opacity:0.5;fill:url(#SVGID_64_);}
	.st67{fill:url(#SVGID_65_);}
	.st68{fill:url(#SVGID_66_);}
	.st69{fill:url(#SVGID_67_);}
	.st70{fill:url(#SVGID_68_);}
	.st71{fill:url(#SVGID_69_);}
	.st72{fill:url(#SVGID_70_);}
	.st73{fill:url(#SVGID_71_);}
	.st74{fill:url(#SVGID_72_);}
	.st75{fill:url(#SVGID_73_);}
	.st76{fill:url(#SVGID_74_);}
	.st77{fill:url(#SVGID_75_);}
	.st78{fill:url(#SVGID_76_);}
	.st79{fill:url(#SVGID_77_);}
	.st80{fill:url(#SVGID_78_);}
	.st81{fill:url(#SVGID_79_);}
	.st82{fill:url(#SVGID_80_);}
	.st83{fill:url(#SVGID_81_);}
	.st84{fill:url(#SVGID_82_);}
	.st85{opacity:0.5;fill:url(#SVGID_83_);}
	.st86{opacity:0.5;fill:url(#SVGID_84_);}
	.st87{fill:url(#SVGID_85_);}
	.st88{fill:url(#SVGID_86_);}
	.st89{fill:url(#SVGID_87_);}
	.st90{fill:url(#SVGID_88_);}
	.st91{fill:url(#SVGID_89_);}
	.st92{opacity:0.2;}
	.st93{fill:none;stroke:#FFFFFF;stroke-width:0.539;stroke-linecap:round;stroke-miterlimit:10;}
	.st94{opacity:0.2;fill:none;stroke:#FFFFFF;stroke-width:0.539;stroke-linecap:round;stroke-miterlimit:10;}
</style>
<g id="BACKGROUND">
	<rect class="st0" width="500" height="500"/>
</g>
<g id="OBJECTS">
	<g>
		<g>
			<g>
				<linearGradient id="SVGID_1_" gradientUnits="userSpaceOnUse" x1="61.566" y1="273.9695" x2="406.8692" y2="273.9695">
					<stop  offset="0" style="stop-color:#E6F4FF"/>
					<stop  offset="0.1601" style="stop-color:#DFF0FF"/>
					<stop  offset="0.5841" style="stop-color:#D3E9FF"/>
					<stop  offset="1" style="stop-color:#CFE7FF"/>
				</linearGradient>
				<circle class="st1" cx="234.22" cy="273.97" r="172.65"/>
				<g>
					<linearGradient id="SVGID_2_" gradientUnits="userSpaceOnUse" x1="315.8531" y1="445.3432" x2="315.8531" y2="101.3179">
						<stop  offset="0" style="stop-color:#CFE7FF;stop-opacity:0.6"/>
						<stop  offset="0.4159" style="stop-color:#D3E9FF;stop-opacity:0.3504"/>
						<stop  offset="0.8399" style="stop-color:#DFF0FF;stop-opacity:0.0961"/>
						<stop  offset="1" style="stop-color:#E6F4FF;stop-opacity:0"/>
					</linearGradient>
					<path class="st2" d="M406.87,273.97c0-95.35-77.3-172.65-172.65-172.65c-3.15,0-6.27,0.09-9.38,0.26
						c0.04,1.45,0.39,2.87,1.13,4.19c4.91,8.69,19.22,4.38,27.09,10.52c7.8,6.1,5.78,19.51,13.2,26.06
						c6.26,5.52,15.98,3.49,23.75,0.44c7.77-3.05,16.31-6.84,24.11-3.87c8.77,3.34,12.41,13.68,14,22.93
						c1.59,9.25,2.56,19.45,9.18,26.1c7.12,7.15,18.26,7.74,28.28,8.9c10.03,1.17,21.45,4.57,25.17,13.95
						c4.93,12.43-6.85,24.54-11.84,36.94c-6.31,15.67-1.54,33.27,0.4,50.05c1.94,16.78-0.9,36.97-15.82,44.9
						c-10.78,5.74-25.46,3.45-34.13,12.05c-9.44,9.38-6.06,26.12-13.94,36.85c-7.82,10.65-23.37,11.33-36.47,9.59
						c-13.1-1.75-27.31-4.71-38.86,1.72c-12.72,7.09-17.24,25.68-9.18,37.81l24.33,4.65C340.68,434.97,406.87,362.2,406.87,273.97z"
						/>
				</g>
				<g>
					
						<linearGradient id="SVGID_3_" gradientUnits="userSpaceOnUse" x1="335.9868" y1="445.3432" x2="335.9868" y2="101.3179" gradientTransform="matrix(-1 0 0 1 488.5688 0)">
						<stop  offset="0" style="stop-color:#CFE7FF;stop-opacity:0.6"/>
						<stop  offset="0.4159" style="stop-color:#D3E9FF;stop-opacity:0.3504"/>
						<stop  offset="0.8399" style="stop-color:#DFF0FF;stop-opacity:0.0961"/>
						<stop  offset="1" style="stop-color:#E6F4FF;stop-opacity:0"/>
					</linearGradient>
					<path class="st3" d="M61.57,273.97c0-95.35,77.3-172.65,172.65-172.65c3.15,0,6.27,0.09,9.38,0.26
						c-0.04,1.45-0.39,2.87-1.13,4.19c-4.91,8.69-19.22,4.38-27.09,10.52c-7.8,6.1-5.78,19.51-13.2,26.06
						c-6.26,5.52-15.98,3.49-23.75,0.44c-7.77-3.05-16.31-6.84-24.11-3.87c-8.77,3.34-12.41,13.68-14,22.93
						c-1.59,9.25-2.56,19.45-9.18,26.1c-7.12,7.15-18.26,7.74-28.28,8.9c-10.03,1.17-21.45,4.57-25.17,13.95
						c-4.93,12.43,6.85,24.54,11.84,36.94c6.31,15.67,1.54,33.27-0.4,50.05c-1.94,16.78,0.9,36.97,15.82,44.9
						c10.78,5.74,25.46,3.45,34.13,12.05c9.44,9.38,6.06,26.12,13.94,36.85c7.82,10.65,23.37,11.33,36.47,9.59
						c13.1-1.75,27.31-4.71,38.86,1.72c12.72,7.09,17.24,25.68,9.18,37.81l-24.33,4.65C127.75,434.97,61.57,362.2,61.57,273.97z"/>
				</g>
			</g>
			<linearGradient id="SVGID_4_" gradientUnits="userSpaceOnUse" x1="110.7812" y1="273.9694" x2="357.6541" y2="273.9694">
				<stop  offset="0" style="stop-color:#CFE7FF;stop-opacity:0.6"/>
				<stop  offset="0.4159" style="stop-color:#D3E9FF;stop-opacity:0.3504"/>
				<stop  offset="0.8399" style="stop-color:#DFF0FF;stop-opacity:0.0961"/>
				<stop  offset="1" style="stop-color:#E6F4FF;stop-opacity:0"/>
			</linearGradient>
			<circle class="st4" cx="234.22" cy="273.97" r="123.44"/>
		</g>
		<g>
			<path class="st5" d="M320.54,273.89c-0.11,11.3-2.44,22.56-6.86,32.91c-4.41,10.36-10.88,19.81-18.88,27.67
				c-8.01,7.85-17.57,14.08-27.93,18.24c-10.36,4.17-21.53,6.23-32.65,6.11c-11.12-0.1-22.2-2.38-32.39-6.72
				c-10.21-4.32-19.49-10.71-27.27-18.54c-7.79-7.84-14.02-17.2-18.21-27.41c-4.21-10.2-6.33-21.23-6.31-32.25
				c-0.03-11.02,2.1-22.05,6.31-32.26c4.19-10.21,10.42-19.57,18.21-27.41c7.78-7.84,17.06-14.23,27.27-18.55
				c10.2-4.34,21.28-6.62,32.4-6.73c11.12-0.12,22.29,1.94,32.65,6.11c10.37,4.16,19.93,10.39,27.94,18.24
				c8.01,7.85,14.48,17.31,18.88,27.67C318.11,251.33,320.44,262.59,320.54,273.89z M316.04,273.89c0.09-10.72-1.9-21.46-5.92-31.44
				c-4.01-9.98-10.03-19.16-17.59-26.88c-7.56-7.71-16.64-13.97-26.61-18.23c-9.97-4.28-20.81-6.54-31.7-6.67
				c-10.9-0.1-21.82,1.95-31.96,6.05c-10.13,4.1-19.48,10.2-27.28,17.92c-7.78,7.73-14.03,17-18.26,27.14
				c-4.24,10.13-6.44,21.1-6.48,32.1c0.03,10.99,2.23,21.97,6.47,32.1c4.23,10.13,10.48,19.4,18.26,27.14
				c7.78,7.73,17.15,13.83,27.27,17.93c10.13,4.11,21.06,6.15,31.96,6.06c10.9-0.13,21.74-2.4,31.71-6.67
				c9.97-4.26,19.05-10.52,26.61-18.23c7.56-7.71,13.57-16.9,17.59-26.88C314.15,295.35,316.14,284.6,316.04,273.89z"/>
		</g>
		<g>
			<path class="st5" d="M390.4,273.89c0.08,28.04-7.34,56.16-21.76,80.34c-0.86,1.53-1.86,2.98-2.78,4.48
				c-0.94,1.49-1.86,2.98-2.9,4.4l-3.04,4.31l-3.23,4.17l-1.62,2.08l-1.72,2c-1.15,1.33-2.27,2.69-3.46,3.99
				c-2.43,2.54-4.79,5.16-7.38,7.54c-10.1,9.81-21.64,18.11-33.97,24.89c-24.77,13.47-53.24,19.94-81.43,18.75
				c-28.18-1.25-56.06-10.11-79.56-25.8c-23.56-15.57-42.82-37.55-55.13-62.99c-12.3-25.45-17.38-54.28-14.77-82.39
				c1.25-14.06,4.45-27.95,9.47-41.13c5.04-13.18,11.87-25.66,20.22-37.01c16.7-22.71,39.68-40.68,65.62-51.41
				c0.03-0.01,0.07,0,0.08,0.03c0.01,0.03,0,0.07-0.03,0.08c-12.81,5.69-24.87,13.02-35.73,21.84
				c-10.84,8.82-20.56,19.02-28.72,30.34c-8.15,11.33-14.77,23.74-19.61,36.81c-4.89,13.05-8.02,26.76-9.2,40.64
				c-2.49,27.76,2.68,56.11,14.69,81.24c12.08,25.1,31.04,46.83,54.25,62.24c23.17,15.53,50.67,24.32,78.51,25.63
				c27.85,1.33,56.06-4.9,80.68-18.11c24.62-13.19,45.56-33.12,60.08-57.04C382.52,329.9,390.21,301.93,390.4,273.89z"/>
		</g>
		<g>
			<linearGradient id="SVGID_5_" gradientUnits="userSpaceOnUse" x1="371.8854" y1="194.1942" x2="371.8854" y2="53.6466">
				<stop  offset="0" style="stop-color:#63C2F7"/>
				<stop  offset="0.1341" style="stop-color:#6DC6F8"/>
				<stop  offset="0.3596" style="stop-color:#87D0F9"/>
				<stop  offset="0.6485" style="stop-color:#B1E0FC"/>
				<stop  offset="0.9869" style="stop-color:#ECF6FF"/>
				<stop  offset="1" style="stop-color:#EEF7FF"/>
			</linearGradient>
			<path class="st6" d="M454.81,121.73c0-20.35-14.59-37.28-33.87-40.94c-5.9-15.85-21.17-27.14-39.07-27.14
				c-12.2,0-23.17,5.24-30.8,13.59c-5.4-2.56-11.44-4-17.82-4c-23.02,0-41.68,18.66-41.68,41.68c0,5.71,1.15,11.14,3.23,16.1
				c-3.7,6.22-5.83,13.49-5.83,21.25c0,23.02,18.66,41.68,41.68,41.68c3.01,0,5.95-0.33,8.78-0.93
				c7.44,6.92,17.41,11.17,28.38,11.17c11.19,0,21.33-4.41,28.82-11.59c15.78-0.77,29.26-10.32,35.65-23.86
				C445.66,151.81,454.81,137.84,454.81,121.73z"/>
			<g>
				<defs>
					<path id="SVGID_6_" d="M454.81,121.73c0-20.35-14.59-37.28-33.87-40.94c-5.9-15.85-21.17-27.14-39.07-27.14
						c-12.2,0-23.17,5.24-30.8,13.59c-5.4-2.56-11.44-4-17.82-4c-23.02,0-41.68,18.66-41.68,41.68c0,5.71,1.15,11.14,3.23,16.1
						c-3.7,6.22-5.83,13.49-5.83,21.25c0,23.02,18.66,41.68,41.68,41.68c3.01,0,5.95-0.33,8.78-0.93
						c7.44,6.92,17.41,11.17,28.38,11.17c11.19,0,21.33-4.41,28.82-11.59c15.78-0.77,29.26-10.32,35.65-23.86
						C445.66,151.81,454.81,137.84,454.81,121.73z"/>
				</defs>
				<clipPath id="SVGID_7_">
					<use xlink:href="#SVGID_6_"  style="overflow:visible;"/>
				</clipPath>
				<g class="st7">
					
						<linearGradient id="SVGID_8_" gradientUnits="userSpaceOnUse" x1="374.5815" y1="169.991" x2="397.1833" y2="169.991" gradientTransform="matrix(0.9989 -0.0478 0.0478 0.9989 -5.2528 8.0299)">
						<stop  offset="0" style="stop-color:#1E72C6"/>
						<stop  offset="0.1542" style="stop-color:#1C68B8"/>
						<stop  offset="0.4392" style="stop-color:#195AA3"/>
						<stop  offset="0.7225" style="stop-color:#175297"/>
						<stop  offset="1" style="stop-color:#164F93"/>
					</linearGradient>
					<path class="st8" d="M381.02,190.12c-4.43-3.9-4.54-45.23-2.51-52.39c1.73-6.1,7.78-9.58,12.68-8.59
						c5.81,1.18,8.85,10.18,7.3,20.36c-1.1,7.19-3.87,26.6-2.32,30.77"/>
					
						<linearGradient id="SVGID_9_" gradientUnits="userSpaceOnUse" x1="-196.074" y1="121.7301" x2="-162.0277" y2="121.7301" gradientTransform="matrix(-1 0 0 1 188.7575 0)">
						<stop  offset="0" style="stop-color:#FFE1E5"/>
						<stop  offset="0.2521" style="stop-color:#F8C5CD"/>
						<stop  offset="0.5042" style="stop-color:#F3B0BB"/>
						<stop  offset="0.7547" style="stop-color:#F0A4B1"/>
						<stop  offset="1" style="stop-color:#EFA0AD"/>
					</linearGradient>
					<path class="st9" d="M352.11,128.15c2.7-0.22,5.15-2.09,5.15-3.39c0-1.3,0-10.06,0-12.9c0-2.84-3.23-12.57-3.23-12.57
						l21.56,4.82v14.83v7.32c2.54,1.05,6.93,2.73,8.81,2.73l0.43,3.43l-9.24,5.43v1.8l-4.03,4.53l-19.89-12.62
						C351.67,131.55,349.41,128.37,352.11,128.15z"/>
					<g>
						<g>
							
								<linearGradient id="SVGID_10_" gradientUnits="userSpaceOnUse" x1="-195.6482" y1="128.996" x2="-195.414" y2="128.996" gradientTransform="matrix(-1 0 0 1 188.7575 0)">
								<stop  offset="0" style="stop-color:#EDAA3E"/>
								<stop  offset="0.2194" style="stop-color:#EDAD42"/>
								<stop  offset="0.4433" style="stop-color:#EEB54E"/>
								<stop  offset="0.6695" style="stop-color:#EFC263"/>
								<stop  offset="0.8957" style="stop-color:#F1D57F"/>
								<stop  offset="1" style="stop-color:#F2DF8F"/>
							</linearGradient>
							<path class="st10" d="M384.17,128.97c0.07,0,0.16,0.02,0.23,0.02l0.01,0.04C384.33,129.01,384.25,128.99,384.17,128.97z"/>
						</g>
					</g>
					
						<linearGradient id="SVGID_11_" gradientUnits="userSpaceOnUse" x1="-186.8324" y1="111.7182" x2="-165.2759" y2="111.7182" gradientTransform="matrix(-1 0 0 1 188.7575 0)">
						<stop  offset="0" style="stop-color:#F9C0C8;stop-opacity:0"/>
						<stop  offset="1" style="stop-color:#F9C0C8"/>
					</linearGradient>
					<path class="st11" d="M357.26,114.59c0-1.11,0-2.08,0-2.74c0-2.84-3.23-12.57-3.23-12.57l21.56,4.82v14.83v4.96
						c-1.13,0.25-2.38,0.32-3.79,0.18C363.18,123.18,359.14,118.47,357.26,114.59z"/>
					
						<linearGradient id="SVGID_12_" gradientUnits="userSpaceOnUse" x1="-196.0741" y1="100.358" x2="-162.5468" y2="100.358" gradientTransform="matrix(-1 0 0 1 188.7575 0)">
						<stop  offset="0" style="stop-color:#FFE1E5"/>
						<stop  offset="0.301" style="stop-color:#FCD0D6"/>
						<stop  offset="0.6538" style="stop-color:#FAC4CC"/>
						<stop  offset="1" style="stop-color:#F9C0C8"/>
					</linearGradient>
					<path class="st12" d="M353.62,97.27c-0.35-3.25-0.42-6.5,0.22-8.95c1.64-6.26,8.83-9.34,15.35-9.34s15.21,2.5,15.21,13.58
						c0,8.09,3.72,28.7-10.72,29.18c-15.21,0.51-18.03-12.52-18.03-12.52c-0.1-0.66-0.32-1.74-0.58-3.05
						C349.61,101.1,350.97,97.56,353.62,97.27z"/>
					<g>
						<linearGradient id="SVGID_13_" gradientUnits="userSpaceOnUse" x1="351.355" y1="102.9893" x2="354.3721" y2="102.9893">
							<stop  offset="0" style="stop-color:#FFE1E5"/>
							<stop  offset="0.301" style="stop-color:#FCD0D6"/>
							<stop  offset="0.6538" style="stop-color:#FAC4CC"/>
							<stop  offset="1" style="stop-color:#F9C0C8"/>
						</linearGradient>
						<path class="st13" d="M354,103.58c-1.19-1.11-2.04-2.13-2.64-3.08c0.21,1.33,1.11,3.03,3.02,4.97
							C354.27,104.93,354.14,104.3,354,103.58z"/>
						<linearGradient id="SVGID_14_" gradientUnits="userSpaceOnUse" x1="370.3464" y1="121.7444" x2="370.3464" y2="85.3515">
							<stop  offset="0" style="stop-color:#F9C0C8;stop-opacity:0"/>
							<stop  offset="1" style="stop-color:#F9C0C8"/>
						</linearGradient>
						<path class="st14" d="M384.4,92.55c0-2.99-0.65-5.34-1.7-7.2c0.39,1.35,0.63,2.87,0.63,4.63c0,8.09,3.72,28.7-10.72,29.18
							c-10.17,0.34-14.8-5.37-16.75-9.19c0.88,2.76,4.83,12.2,17.82,11.76C388.12,121.25,384.4,100.64,384.4,92.55z"/>
					</g>
					<g>
						<g>
							<path class="st15" d="M378.59,99.49c0.04,0.9,0.8,1.61,1.71,1.57c0.9-0.04,1.61-0.8,1.57-1.71c-0.04-0.9-0.8-1.61-1.71-1.57
								C379.25,97.82,378.55,98.59,378.59,99.49z"/>
							<g>
								<path class="st15" d="M382.91,97.29c-0.31-0.2-0.71-0.32-1.09-0.42c-0.39-0.09-0.79-0.16-1.19-0.19
									c-0.78-0.07-1.64-0.03-2.18,0.25c-0.29,0.15-0.65,0.04-0.8-0.25c-0.15-0.29-0.04-0.65,0.25-0.8
									c0.03-0.02,0.06-0.03,0.09-0.04l0.01,0c0.52-0.17,0.99-0.17,1.45-0.14c0.45,0.03,0.89,0.11,1.31,0.22
									c0.42,0.11,0.84,0.24,1.24,0.41c0.4,0.17,0.79,0.36,1.14,0.67c0.07,0.07,0.08,0.18,0.02,0.25
									c-0.06,0.07-0.16,0.08-0.23,0.03L382.91,97.29z"/>
							</g>
						</g>
						<g>
							<path class="st15" d="M368.63,99.75c0.04,0.9-0.66,1.67-1.57,1.71c-0.9,0.04-1.67-0.66-1.71-1.57
								c-0.04-0.9,0.66-1.67,1.57-1.71C367.83,98.15,368.6,98.85,368.63,99.75z"/>
							<g>
								<path class="st15" d="M363.46,98.05c0.39-0.39,0.82-0.64,1.26-0.9c0.44-0.25,0.9-0.47,1.36-0.67
									c0.47-0.2,0.95-0.38,1.46-0.51c0.52-0.12,1.05-0.25,1.74-0.1c0.32,0.07,0.52,0.38,0.46,0.7c-0.07,0.32-0.38,0.52-0.7,0.46
									c-0.04-0.01-0.07-0.02-0.1-0.03l-0.01,0c-0.27-0.11-0.76-0.12-1.2-0.06c-0.46,0.05-0.93,0.15-1.39,0.28
									c-0.46,0.13-0.92,0.28-1.37,0.46c-0.44,0.18-0.9,0.38-1.25,0.65l-0.02,0.01c-0.08,0.06-0.19,0.04-0.25-0.04
									C363.39,98.22,363.4,98.12,363.46,98.05z"/>
							</g>
						</g>
						<linearGradient id="SVGID_15_" gradientUnits="userSpaceOnUse" x1="372.3353" y1="107.3355" x2="376.634" y2="107.3355">
							<stop  offset="0" style="stop-color:#F9C0C8;stop-opacity:0"/>
							<stop  offset="1" style="stop-color:#F9C0C8"/>
						</linearGradient>
						<path class="st16" d="M374.51,107.1c0.78-0.03,1.51-0.28,2.12-0.68c-0.17,1-1.02,1.78-2.08,1.83
							c-1.05,0.04-1.97-0.66-2.22-1.64C372.98,106.95,373.72,107.13,374.51,107.1z"/>
						<circle class="st15" cx="374.93" cy="112.3" r="1.48"/>
					</g>
					
						<linearGradient id="SVGID_16_" gradientUnits="userSpaceOnUse" x1="-209.1257" y1="164.5209" x2="-150.8801" y2="164.5209" gradientTransform="matrix(-1 0 0 1 188.7575 0)">
						<stop  offset="0" style="stop-color:#1E72C6"/>
						<stop  offset="0.1542" style="stop-color:#1C68B8"/>
						<stop  offset="0.4392" style="stop-color:#195AA3"/>
						<stop  offset="0.7225" style="stop-color:#175297"/>
						<stop  offset="1" style="stop-color:#164F93"/>
					</linearGradient>
					<path class="st17" d="M342.48,163.08c1.03,13.61-6.42,24.36,0.77,29.5c25.42,20.29,48.99,6.81,54.64,5.39
						c-1.61-16.81-2.05-19.99-2.25-36.17c-0.22-5.46,1.51-24.02-3.11-29.35c-7.69-8.3-16.52-6.64-16.52-6.64s0.27,4.98-2.36,5.39
						c-8.67,0-11.48-5.14-16.59-5.75c-14.83-0.96-18.9,9.94-16.98,16.63L342.48,163.08z"/>
					<g>
						<linearGradient id="SVGID_17_" gradientUnits="userSpaceOnUse" x1="376.4865" y1="203.6559" x2="376.4865" y2="126.1134">
							<stop  offset="0" style="stop-color:#1E72C6"/>
							<stop  offset="0.2853" style="stop-color:#1C6BBC"/>
							<stop  offset="0.7631" style="stop-color:#185AA2"/>
							<stop  offset="1" style="stop-color:#164F93"/>
						</linearGradient>
						<path class="st18" d="M395.64,161.79c-0.22-5.46,1.51-24.02-3.11-29.35c-3.65-3.94-7.56-5.64-10.66-6.33
							c1.89,1.01,3.86,2.45,5.76,4.5c4.62,5.33,2.89,23.88,3.11,29.35c0.19,16.18,0.64,19.36,2.25,36.17
							c-4.37,1.09-19.49,9.41-37.89,3.7c20.58,9.06,38.04-0.68,42.79-1.87C396.27,181.16,395.83,177.97,395.64,161.79z"/>
						<linearGradient id="SVGID_18_" gradientUnits="userSpaceOnUse" x1="356.9077" y1="127.1919" x2="364.7627" y2="127.1919">
							<stop  offset="0" style="stop-color:#1E72C6"/>
							<stop  offset="0.1542" style="stop-color:#1C68B8"/>
							<stop  offset="0.4392" style="stop-color:#195AA3"/>
							<stop  offset="0.7225" style="stop-color:#175297"/>
							<stop  offset="1" style="stop-color:#164F93"/>
						</linearGradient>
						<path class="st19" d="M364.76,128.95c-2.77-1.47-4.89-3.17-7.7-3.51c-0.05,0-0.1,0-0.16-0.01
							C359.09,126.69,361.4,128.23,364.76,128.95z"/>
					</g>
					<g>
						<linearGradient id="SVGID_19_" gradientUnits="userSpaceOnUse" x1="356.574" y1="130.4224" x2="373.6506" y2="130.4224">
							<stop  offset="0" style="stop-color:#FF722C"/>
							<stop  offset="0.1923" style="stop-color:#FF762D"/>
							<stop  offset="0.3885" style="stop-color:#FF8230"/>
							<stop  offset="0.5868" style="stop-color:#FF9734"/>
							<stop  offset="0.7863" style="stop-color:#FFB33A"/>
							<stop  offset="0.9851" style="stop-color:#FFD842"/>
							<stop  offset="1" style="stop-color:#FFDB43"/>
						</linearGradient>
						<path class="st20" d="M360.68,126.63c2.82,1.95,10.66,4.24,12.97,4.56l-5.84,6.58c0,0-9.95-8.66-11.23-12.35l0.69-2.35
							C357.26,123.07,359.63,125.91,360.68,126.63z"/>
						<linearGradient id="SVGID_20_" gradientUnits="userSpaceOnUse" x1="373.6506" y1="130.3937" x2="378.9004" y2="130.3937">
							<stop  offset="0" style="stop-color:#FF722C"/>
							<stop  offset="0.1923" style="stop-color:#FF762D"/>
							<stop  offset="0.3885" style="stop-color:#FF8230"/>
							<stop  offset="0.5868" style="stop-color:#FF9734"/>
							<stop  offset="0.7863" style="stop-color:#FFB33A"/>
							<stop  offset="0.9851" style="stop-color:#FFD842"/>
							<stop  offset="1" style="stop-color:#FFDB43"/>
						</linearGradient>
						<path class="st21" d="M373.65,131.19l5.25,4.71c0,0-1.49-8.95-2.62-10.2l-0.69-0.82
							C375.59,124.89,375.59,128.35,373.65,131.19z"/>
					</g>
					<linearGradient id="SVGID_21_" gradientUnits="userSpaceOnUse" x1="352.0092" y1="90.3163" x2="361.1348" y2="90.3163">
						<stop  offset="0" style="stop-color:#FF722C"/>
						<stop  offset="0.1923" style="stop-color:#FF762D"/>
						<stop  offset="0.3885" style="stop-color:#FF8230"/>
						<stop  offset="0.5868" style="stop-color:#FF9734"/>
						<stop  offset="0.7863" style="stop-color:#FFB33A"/>
						<stop  offset="0.9851" style="stop-color:#FFD842"/>
						<stop  offset="1" style="stop-color:#FFDB43"/>
					</linearGradient>
					<path class="st22" d="M353.62,97.27c0,0,8.35-5.97,7.45-11.5c-1.67-0.32-4.18-3.21-7.45-2.18
						C350.35,84.61,352.97,96.05,353.62,97.27z"/>
					<linearGradient id="SVGID_22_" gradientUnits="userSpaceOnUse" x1="353.755" y1="97.2652" x2="353.755" y2="83.3716">
						<stop  offset="0" style="stop-color:#FFFAF8;stop-opacity:0"/>
						<stop  offset="0.218" style="stop-color:#FFF9F4;stop-opacity:0.218"/>
						<stop  offset="0.4406" style="stop-color:#FFF8E8;stop-opacity:0.4406"/>
						<stop  offset="0.6653" style="stop-color:#FFF5D3;stop-opacity:0.6653"/>
						<stop  offset="0.8902" style="stop-color:#FFF0B7;stop-opacity:0.8902"/>
						<stop  offset="1" style="stop-color:#FFEEA6"/>
					</linearGradient>
					<path class="st23" d="M354.51,83.59c0.34-0.11,0.67-0.16,0.99-0.19c-0.6-0.06-1.22-0.02-1.88,0.19
						c-3.27,1.03-0.64,12.46,0,13.68c0,0,0.27-0.19,0.69-0.53C353.46,94.19,351.51,84.53,354.51,83.59z"/>
					<linearGradient id="SVGID_23_" gradientUnits="userSpaceOnUse" x1="355.0949" y1="81.9078" x2="387.7763" y2="81.9078">
						<stop  offset="0" style="stop-color:#FF722C"/>
						<stop  offset="0.1923" style="stop-color:#FF762D"/>
						<stop  offset="0.3885" style="stop-color:#FF8230"/>
						<stop  offset="0.5868" style="stop-color:#FF9734"/>
						<stop  offset="0.7863" style="stop-color:#FFB33A"/>
						<stop  offset="0.9851" style="stop-color:#FFD842"/>
						<stop  offset="1" style="stop-color:#FFDB43"/>
					</linearGradient>
					<path class="st24" d="M355.1,83.37c-0.13-5.56,9.44-8.83,15.6-7.93c6.16,0.9,16.31-0.77,17.08-2.7c0,0,0.16,18.1-3.37,18.3
						c-1.8-1.06-3.05-3.66-4.88-3.56c-1.83,0.1-4.62,2.89-8.09,3.56c-3.47,0.67-5.01-6.64-10.79-3.95L355.1,83.37z"/>
					<linearGradient id="SVGID_24_" gradientUnits="userSpaceOnUse" x1="334.7361" y1="169.6154" x2="387.5334" y2="169.6154">
						<stop  offset="0" style="stop-color:#1E72C6"/>
						<stop  offset="0.1542" style="stop-color:#1C68B8"/>
						<stop  offset="0.4392" style="stop-color:#195AA3"/>
						<stop  offset="0.7225" style="stop-color:#175297"/>
						<stop  offset="1" style="stop-color:#164F93"/>
					</linearGradient>
					<path class="st25" d="M350.34,127.69c5.75,1.46,7.79,13.56,6.32,20.68c-1.48,7.13-5.14,26.39-3.79,30.62
						c1.35,4.24,34.67,11.83,34.67,19.11c0,7.28-11.33,13.95-14.82,13.7c-3.48-0.25-31.22-19.58-35.45-23.69
						c-4.24-4.11-2.38-45.39,0-52.45C339.28,129.65,345.5,126.46,350.34,127.69z"/>
					<linearGradient id="SVGID_25_" gradientUnits="userSpaceOnUse" x1="334.7361" y1="169.6207" x2="376.276" y2="169.6207">
						<stop  offset="0" style="stop-color:#2B97E0"/>
						<stop  offset="0.081" style="stop-color:#288CD4"/>
						<stop  offset="0.3131" style="stop-color:#2071B8"/>
						<stop  offset="0.5451" style="stop-color:#1A5EA3"/>
						<stop  offset="0.7749" style="stop-color:#175397"/>
						<stop  offset="1" style="stop-color:#164F93"/>
					</linearGradient>
					<path class="st26" d="M341.24,187.29c-4.24-4.11-2.38-45.39,0-52.45c1.21-3.59,3.91-6.16,6.92-7.4
						c-4.38,0.01-9.17,3.08-10.9,8.22c-2.38,7.06-4.24,48.34,0,52.45c4.24,4.11,31.97,23.43,35.45,23.69
						c0.83,0.06,2.1-0.27,3.56-0.91C371.42,209.46,345.34,191.26,341.24,187.29z"/>
					<g>
						<linearGradient id="SVGID_26_" gradientUnits="userSpaceOnUse" x1="350.6719" y1="101.2058" x2="358.8351" y2="101.2058">
							<stop  offset="0" style="stop-color:#1E72C6"/>
							<stop  offset="0.1542" style="stop-color:#1C68B8"/>
							<stop  offset="0.4392" style="stop-color:#195AA3"/>
							<stop  offset="0.7225" style="stop-color:#175297"/>
							<stop  offset="1" style="stop-color:#164F93"/>
						</linearGradient>
						<path class="st27" d="M354.75,95.33h-1.87v0.68c-1.31,0.98-2.21,2.92-2.21,5.2c0,2.27,0.9,4.22,2.21,5.2v0.68h1.87
							c2.25,0,4.08-2.63,4.08-5.87C358.84,97.96,357.01,95.33,354.75,95.33z"/>
						<linearGradient id="SVGID_27_" gradientUnits="userSpaceOnUse" x1="348.8045" y1="101.2058" x2="356.9678" y2="101.2058">
							<stop  offset="0" style="stop-color:#1E72C6"/>
							<stop  offset="0.1542" style="stop-color:#1C68B8"/>
							<stop  offset="0.4392" style="stop-color:#195AA3"/>
							<stop  offset="0.7225" style="stop-color:#175297"/>
							<stop  offset="1" style="stop-color:#164F93"/>
						</linearGradient>
						<path class="st28" d="M356.97,101.21c0,3.24-1.83,5.87-4.08,5.87c-2.25,0-4.08-2.63-4.08-5.87c0-3.24,1.83-5.87,4.08-5.87
							C355.14,95.33,356.97,97.96,356.97,101.21z"/>
						<linearGradient id="SVGID_28_" gradientUnits="userSpaceOnUse" x1="350.2987" y1="101.2058" x2="355.4736" y2="101.2058">
							<stop  offset="0" style="stop-color:#FF722C"/>
							<stop  offset="0.1923" style="stop-color:#FF762D"/>
							<stop  offset="0.3885" style="stop-color:#FF8230"/>
							<stop  offset="0.5868" style="stop-color:#FF9734"/>
							<stop  offset="0.7863" style="stop-color:#FFB33A"/>
							<stop  offset="0.9851" style="stop-color:#FFD842"/>
							<stop  offset="1" style="stop-color:#FFDB43"/>
						</linearGradient>
						<path class="st29" d="M355.47,101.21c0,2.06-1.16,3.72-2.59,3.72c-1.43,0-2.59-1.67-2.59-3.72c0-2.06,1.16-3.72,2.59-3.72
							C354.32,97.48,355.47,99.15,355.47,101.21z"/>
					</g>
					<linearGradient id="SVGID_29_" gradientUnits="userSpaceOnUse" x1="355.6634" y1="112.3016" x2="374.496" y2="112.3016">
						<stop  offset="0" style="stop-color:#FF722C"/>
						<stop  offset="0.1923" style="stop-color:#FF762D"/>
						<stop  offset="0.3885" style="stop-color:#FF8230"/>
						<stop  offset="0.5868" style="stop-color:#FF9734"/>
						<stop  offset="0.7863" style="stop-color:#FFB33A"/>
						<stop  offset="0.9851" style="stop-color:#FFD842"/>
						<stop  offset="1" style="stop-color:#FFDB43"/>
					</linearGradient>
					<path class="st30" d="M356.17,106.06c0.96,2.21,2.36,14.4,17.82,12.23"/>
					<linearGradient id="SVGID_30_" gradientUnits="userSpaceOnUse" x1="370.2319" y1="118.0956" x2="378.225" y2="118.0956">
						<stop  offset="0" style="stop-color:#1E72C6"/>
						<stop  offset="0.1542" style="stop-color:#1C68B8"/>
						<stop  offset="0.4392" style="stop-color:#195AA3"/>
						<stop  offset="0.7225" style="stop-color:#175297"/>
						<stop  offset="1" style="stop-color:#164F93"/>
					</linearGradient>
					<path class="st31" d="M378.23,118.1c0,1.14-1.79,2.07-4,2.07c-2.21,0-4-0.93-4-2.07c0-1.14,1.79-2.07,4-2.07
						C376.44,116.03,378.23,116.95,378.23,118.1z"/>
					
						<linearGradient id="SVGID_31_" gradientUnits="userSpaceOnUse" x1="404.3335" y1="203.5698" x2="404.3335" y2="164.7908" gradientTransform="matrix(1 0 -0.3642 1.0027 66.5087 -0.7148)">
						<stop  offset="0" style="stop-color:#97CDF2"/>
						<stop  offset="0.1908" style="stop-color:#A1D2F3"/>
						<stop  offset="0.5114" style="stop-color:#BBDEF7"/>
						<stop  offset="0.9202" style="stop-color:#E5F3FE"/>
						<stop  offset="1" style="stop-color:#EEF7FF"/>
					</linearGradient>
					<path class="st32" d="M424.83,203.4h-56.27c-2.81,0-4.25-2.28-3.23-5.1l10.42-28.69c1.02-2.82,4.13-5.1,6.94-5.1h56.27
						c2.81,0,4.26,2.28,3.23,5.1l-10.42,28.69C430.75,201.12,427.64,203.4,424.83,203.4z"/>
					
						<linearGradient id="SVGID_32_" gradientUnits="userSpaceOnUse" x1="406.3237" y1="203.5698" x2="406.3237" y2="164.7908" gradientTransform="matrix(1 0 -0.3642 1.0027 66.5087 -0.7148)">
						<stop  offset="0" style="stop-color:#7FADD3"/>
						<stop  offset="0.2248" style="stop-color:#89B4D9"/>
						<stop  offset="0.6024" style="stop-color:#A3C8E9"/>
						<stop  offset="1" style="stop-color:#C5E2FF"/>
					</linearGradient>
					<path class="st33" d="M426.82,203.4h-56.27c-2.81,0-4.25-2.28-3.23-5.1l10.42-28.69c1.02-2.82,4.13-5.1,6.94-5.1h56.27
						c2.81,0,4.26,2.28,3.23,5.1l-10.42,28.69C432.74,201.12,429.63,203.4,426.82,203.4z"/>
					<path class="st5" d="M412.81,186.28c-1.48,2.57-4.48,3.62-6.7,2.34c-2.21-1.28-2.81-4.4-1.32-6.97
						c1.48-2.57,4.48-3.62,6.7-2.34C413.7,180.59,414.3,183.71,412.81,186.28z"/>
				</g>
			</g>
		</g>
		<linearGradient id="SVGID_33_" gradientUnits="userSpaceOnUse" x1="303.0019" y1="275.665" x2="359.9008" y2="275.665">
			<stop  offset="0" style="stop-color:#97D3FF"/>
			<stop  offset="0.0101" style="stop-color:#95D2FF"/>
			<stop  offset="0.2099" style="stop-color:#70B8FC"/>
			<stop  offset="0.4104" style="stop-color:#54A4FA"/>
			<stop  offset="0.6096" style="stop-color:#3F96F8"/>
			<stop  offset="0.8068" style="stop-color:#338EF7"/>
			<stop  offset="1" style="stop-color:#2F8BF7"/>
		</linearGradient>
		<path class="st34" d="M331.45,304.11c15.71,0,28.45-12.74,28.45-28.45c0-15.71-12.74-28.45-28.45-28.45
			c-15.71,0-28.45,12.74-28.45,28.45C303,291.38,315.74,304.11,331.45,304.11z M338.74,263.6c0-0.91,0.74-1.65,1.65-1.65h4.89
			c0.91,0,1.65,0.74,1.65,1.65v13.56c0,0.91-0.74,1.65-1.65,1.65h-4.89c-0.91,0-1.65-0.74-1.65-1.65V263.6z M318.29,277.21
			c-1.27,0-2.31-1.04-2.31-2.31c0-1.27,1.04-2.31,2.31-2.31h0.85c-1.27,0-2.31-1.04-2.31-2.31c0-1.27,1.04-2.31,2.31-2.31h0.27
			c-1.04,0-1.89-0.85-1.89-1.89c0-1.04,0.85-1.89,1.89-1.89h15.53c0.89,0,1.62,0.73,1.62,1.62v2.15v4.63v4.63
			c0,0,0.32,3.38-1.91,6.25c-2.5,3.2-4.34,4.62-4.71,5.67c-0.24,0.68,0.38,2.6,0.03,3.61c-0.34,1.01-1.22,1.65-2.42,1.44
			c-1.2-0.21-3.03-2.07-3.03-5.42c0-2.11,1.4-4.7,2.43-6.33h-8.36c-1.43,0-2.61-1.17-2.61-2.6c0-1.43,1.17-2.61,2.61-2.61H318.29z"
			/>
		<linearGradient id="SVGID_34_" gradientUnits="userSpaceOnUse" x1="114.0547" y1="154.767" x2="147.609" y2="154.767">
			<stop  offset="0" style="stop-color:#97D3FF"/>
			<stop  offset="0.0101" style="stop-color:#95D2FF"/>
			<stop  offset="0.2099" style="stop-color:#70B8FC"/>
			<stop  offset="0.4104" style="stop-color:#54A4FA"/>
			<stop  offset="0.6096" style="stop-color:#3F96F8"/>
			<stop  offset="0.8068" style="stop-color:#338EF7"/>
			<stop  offset="1" style="stop-color:#2F8BF7"/>
		</linearGradient>
		<path class="st35" d="M130.83,171.54c9.27,0,16.78-7.51,16.78-16.78c0-9.27-7.51-16.78-16.78-16.78
			c-9.27,0-16.78,7.51-16.78,16.78C114.05,164.03,121.57,171.54,130.83,171.54z M135.13,147.65c0-0.53,0.44-0.97,0.97-0.97h2.88
			c0.53,0,0.97,0.44,0.97,0.97v8c0,0.53-0.44,0.97-0.97,0.97h-2.88c-0.53,0-0.97-0.44-0.97-0.97V147.65z M123.07,155.68
			c-0.75,0-1.36-0.61-1.36-1.36c0-0.75,0.61-1.36,1.36-1.36h0.5c-0.75,0-1.36-0.61-1.36-1.36s0.61-1.36,1.36-1.36h0.16
			c-0.61,0-1.11-0.5-1.11-1.11c0-0.61,0.5-1.11,1.11-1.11h9.16c0.53,0,0.96,0.43,0.96,0.96v1.27v2.73v2.73c0,0,0.19,2-1.13,3.68
			c-1.47,1.89-2.56,2.72-2.78,3.34c-0.14,0.4,0.22,1.53,0.02,2.13c-0.2,0.6-0.72,0.97-1.43,0.85c-0.71-0.13-1.79-1.22-1.79-3.2
			c0-1.25,0.82-2.77,1.43-3.73h-4.93c-0.85,0-1.54-0.69-1.54-1.54c0-0.85,0.69-1.54,1.54-1.54H123.07z"/>
		<linearGradient id="SVGID_35_" gradientUnits="userSpaceOnUse" x1="322.5201" y1="214.611" x2="344.355" y2="214.611">
			<stop  offset="0" style="stop-color:#97D3FF"/>
			<stop  offset="0.0101" style="stop-color:#95D2FF"/>
			<stop  offset="0.2099" style="stop-color:#70B8FC"/>
			<stop  offset="0.4104" style="stop-color:#54A4FA"/>
			<stop  offset="0.6096" style="stop-color:#3F96F8"/>
			<stop  offset="0.8068" style="stop-color:#338EF7"/>
			<stop  offset="1" style="stop-color:#2F8BF7"/>
		</linearGradient>
		<path class="st36" d="M333.44,225.53c6.03,0,10.92-4.89,10.92-10.92c0-6.03-4.89-10.92-10.92-10.92
			c-6.03,0-10.92,4.89-10.92,10.92C322.52,220.64,327.41,225.53,333.44,225.53z M336.23,209.98c0-0.35,0.28-0.63,0.63-0.63h1.88
			c0.35,0,0.63,0.28,0.63,0.63v5.2c0,0.35-0.28,0.63-0.63,0.63h-1.88c-0.35,0-0.63-0.28-0.63-0.63V209.98z M328.39,215.2
			c-0.49,0-0.89-0.4-0.89-0.89c0-0.49,0.4-0.89,0.89-0.89h0.33c-0.49,0-0.89-0.4-0.89-0.89c0-0.49,0.4-0.89,0.89-0.89h0.1
			c-0.4,0-0.72-0.33-0.72-0.72c0-0.4,0.33-0.72,0.72-0.72h5.96c0.34,0,0.62,0.28,0.62,0.62v0.83v1.78v1.78c0,0,0.12,1.3-0.73,2.4
			c-0.96,1.23-1.67,1.77-1.81,2.18c-0.09,0.26,0.14,1,0.01,1.38c-0.13,0.39-0.47,0.63-0.93,0.55c-0.46-0.08-1.16-0.8-1.16-2.08
			c0-0.81,0.54-1.81,0.93-2.43h-3.21c-0.55,0-1-0.45-1-1c0-0.55,0.45-1,1-1H328.39z"/>
		<linearGradient id="SVGID_36_" gradientUnits="userSpaceOnUse" x1="288.9658" y1="338.9679" x2="322.5201" y2="338.9679">
			<stop  offset="0" style="stop-color:#FF722C"/>
			<stop  offset="0.1923" style="stop-color:#FF762D"/>
			<stop  offset="0.3885" style="stop-color:#FF8230"/>
			<stop  offset="0.5868" style="stop-color:#FF9734"/>
			<stop  offset="0.7863" style="stop-color:#FFB33A"/>
			<stop  offset="0.9851" style="stop-color:#FFD842"/>
			<stop  offset="1" style="stop-color:#FFDB43"/>
		</linearGradient>
		<path class="st37" d="M305.74,355.74c9.27,0,16.78-7.51,16.78-16.78s-7.51-16.78-16.78-16.78c-9.27,0-16.78,7.51-16.78,16.78
			S296.48,355.74,305.74,355.74z M310.04,331.85c0-0.53,0.44-0.97,0.97-0.97h2.88c0.53,0,0.97,0.44,0.97,0.97v8
			c0,0.53-0.44,0.97-0.97,0.97h-2.88c-0.53,0-0.97-0.44-0.97-0.97V331.85z M297.98,339.88c-0.75,0-1.36-0.61-1.36-1.36
			c0-0.75,0.61-1.36,1.36-1.36h0.5c-0.75,0-1.36-0.61-1.36-1.36s0.61-1.36,1.36-1.36h0.16c-0.61,0-1.11-0.5-1.11-1.11
			c0-0.61,0.5-1.11,1.11-1.11h9.16c0.53,0,0.96,0.43,0.96,0.96v1.27v2.73v2.73c0,0,0.19,2-1.13,3.68c-1.47,1.89-2.56,2.72-2.78,3.34
			c-0.14,0.4,0.22,1.53,0.02,2.13c-0.2,0.6-0.72,0.97-1.43,0.85c-0.71-0.13-1.79-1.22-1.79-3.2c0-1.25,0.82-2.77,1.43-3.73h-4.93
			c-0.85,0-1.54-0.69-1.54-1.54c0-0.85,0.69-1.54,1.54-1.54H297.98z"/>
		
			<linearGradient id="SVGID_37_" gradientUnits="userSpaceOnUse" x1="529.4066" y1="360.6773" x2="548.5634" y2="360.6773" gradientTransform="matrix(0.7292 -0.6843 0.6843 0.7292 -479.8705 212.3385)">
			<stop  offset="0" style="stop-color:#FF722C"/>
			<stop  offset="0.1923" style="stop-color:#FF762D"/>
			<stop  offset="0.3885" style="stop-color:#FF8230"/>
			<stop  offset="0.5868" style="stop-color:#FF9734"/>
			<stop  offset="0.7863" style="stop-color:#FFB33A"/>
			<stop  offset="0.9851" style="stop-color:#FFD842"/>
			<stop  offset="1" style="stop-color:#FFDB43"/>
		</linearGradient>
		<polyline class="st38" points="151.73,109.35 152.36,93.48 163.02,111.5 166.12,101.46 173.14,114.34 		"/>
		
			<linearGradient id="SVGID_38_" gradientUnits="userSpaceOnUse" x1="297.7622" y1="332.2716" x2="316.9193" y2="332.2716" gradientTransform="matrix(0.9896 -0.1437 0.1437 0.9896 -162.0475 -220.6418)">
			<stop  offset="0" style="stop-color:#FF722C"/>
			<stop  offset="0.1923" style="stop-color:#FF762D"/>
			<stop  offset="0.3885" style="stop-color:#FF8230"/>
			<stop  offset="0.5868" style="stop-color:#FF9734"/>
			<stop  offset="0.7863" style="stop-color:#FFB33A"/>
			<stop  offset="0.9851" style="stop-color:#FFD842"/>
			<stop  offset="1" style="stop-color:#FFDB43"/>
		</linearGradient>
		<polyline class="st39" points="181.47,61.62 191.07,48.96 189.49,69.84 197.79,63.39 196.16,77.96 		"/>
		
			<linearGradient id="SVGID_39_" gradientUnits="userSpaceOnUse" x1="358.282" y1="330.9905" x2="377.4395" y2="330.9905" gradientTransform="matrix(0.3315 0.9434 -0.9434 0.3315 431.457 -389.0162)">
			<stop  offset="0" style="stop-color:#FF722C"/>
			<stop  offset="0.1923" style="stop-color:#FF762D"/>
			<stop  offset="0.3885" style="stop-color:#FF8230"/>
			<stop  offset="0.5868" style="stop-color:#FF9734"/>
			<stop  offset="0.7863" style="stop-color:#FFB33A"/>
			<stop  offset="0.9851" style="stop-color:#FFD842"/>
			<stop  offset="1" style="stop-color:#FFDB43"/>
		</linearGradient>
		<polyline class="st40" points="241.88,59.06 256.15,66.05 235.36,68.52 243.28,75.42 228.67,76.63 		"/>
		<linearGradient id="SVGID_40_" gradientUnits="userSpaceOnUse" x1="282.9872" y1="98.3774" x2="282.9872" y2="80.8036">
			<stop  offset="0" style="stop-color:#97CDF2"/>
			<stop  offset="0.1908" style="stop-color:#A1D2F3"/>
			<stop  offset="0.5114" style="stop-color:#BBDEF7"/>
			<stop  offset="0.9202" style="stop-color:#E5F3FE"/>
			<stop  offset="1" style="stop-color:#EEF7FF"/>
		</linearGradient>
		<path class="st41" d="M291.77,89.59c0,4.85-3.93,8.79-8.79,8.79c-4.85,0-8.79-3.93-8.79-8.79s3.93-8.79,8.79-8.79
			C287.84,80.8,291.77,84.74,291.77,89.59z"/>
		<linearGradient id="SVGID_41_" gradientUnits="userSpaceOnUse" x1="268.6295" y1="103.9093" x2="268.6295" y2="94.0811">
			<stop  offset="0" style="stop-color:#97CDF2"/>
			<stop  offset="0.1908" style="stop-color:#A1D2F3"/>
			<stop  offset="0.5114" style="stop-color:#BBDEF7"/>
			<stop  offset="0.9202" style="stop-color:#E5F3FE"/>
			<stop  offset="1" style="stop-color:#EEF7FF"/>
		</linearGradient>
		<circle class="st42" cx="268.63" cy="99" r="4.91"/>
		<linearGradient id="SVGID_42_" gradientUnits="userSpaceOnUse" x1="260.9089" y1="113.5844" x2="260.9089" y2="106.785">
			<stop  offset="0" style="stop-color:#97CDF2"/>
			<stop  offset="0.1908" style="stop-color:#A1D2F3"/>
			<stop  offset="0.5114" style="stop-color:#BBDEF7"/>
			<stop  offset="0.9202" style="stop-color:#E5F3FE"/>
			<stop  offset="1" style="stop-color:#EEF7FF"/>
		</linearGradient>
		<path class="st43" d="M264.31,110.18c0,1.88-1.52,3.4-3.4,3.4c-1.88,0-3.4-1.52-3.4-3.4s1.52-3.4,3.4-3.4
			C262.79,106.79,264.31,108.31,264.31,110.18z"/>
		<linearGradient id="SVGID_43_" gradientUnits="userSpaceOnUse" x1="259.8792" y1="121.3248" x2="259.8792" y2="117.5859">
			<stop  offset="0" style="stop-color:#97CDF2"/>
			<stop  offset="0.1908" style="stop-color:#A1D2F3"/>
			<stop  offset="0.5114" style="stop-color:#BBDEF7"/>
			<stop  offset="0.9202" style="stop-color:#E5F3FE"/>
			<stop  offset="1" style="stop-color:#EEF7FF"/>
		</linearGradient>
		<path class="st44" d="M261.75,119.46c0,1.03-0.84,1.87-1.87,1.87c-1.03,0-1.87-0.84-1.87-1.87c0-1.03,0.84-1.87,1.87-1.87
			C260.91,117.59,261.75,118.42,261.75,119.46z"/>
		<g>
			
				<ellipse transform="matrix(0.2898 -0.9571 0.9571 0.2898 -216.3932 341.2032)" class="st5" cx="121.71" cy="316.41" rx="20.72" ry="20.72"/>
			<linearGradient id="SVGID_44_" gradientUnits="userSpaceOnUse" x1="104.7901" y1="316.4084" x2="138.6245" y2="316.4084">
				<stop  offset="0" style="stop-color:#FFDB43"/>
				<stop  offset="0.0149" style="stop-color:#FFD842"/>
				<stop  offset="0.2137" style="stop-color:#FFB33A"/>
				<stop  offset="0.4132" style="stop-color:#FF9734"/>
				<stop  offset="0.6115" style="stop-color:#FF8230"/>
				<stop  offset="0.8077" style="stop-color:#FF762D"/>
				<stop  offset="1" style="stop-color:#FF722C"/>
			</linearGradient>
			<path class="st45" d="M138.62,316.41c0,9.34-7.57,16.92-16.92,16.92c-9.34,0-16.92-7.57-16.92-16.92
				c0-9.34,7.57-16.92,16.92-16.92C131.05,299.49,138.62,307.07,138.62,316.41z"/>
			<g>
				<path class="st46" d="M116.91,314.78c0,0.81-0.66,1.47-1.47,1.47s-1.47-0.66-1.47-1.47c0-0.81,0.66-1.47,1.47-1.47
					S116.91,313.97,116.91,314.78z"/>
				<g>
					<path class="st46" d="M116.35,314.28c-0.3-0.22-0.77-0.44-1.21-0.59c-0.45-0.16-0.92-0.28-1.39-0.36
						c-0.96-0.16-1.95-0.2-2.94-0.12c-0.17,0.01-0.32-0.11-0.33-0.29c-0.01-0.16,0.1-0.3,0.26-0.33c1.02-0.16,2.07-0.22,3.12-0.12
						c0.53,0.05,1.05,0.13,1.57,0.27c0.53,0.15,1.01,0.3,1.56,0.63c0.27,0.16,0.35,0.5,0.19,0.77c-0.16,0.27-0.5,0.35-0.77,0.19
						c-0.01-0.01-0.03-0.02-0.04-0.03L116.35,314.28z"/>
				</g>
			</g>
			<g>
				<path class="st46" d="M127.35,314.78c0,0.81,0.66,1.47,1.47,1.47c0.81,0,1.47-0.66,1.47-1.47c0-0.81-0.66-1.47-1.47-1.47
					C128.01,313.31,127.35,313.97,127.35,314.78z"/>
				<g>
					<path class="st46" d="M127.27,313.37c0.55-0.33,1.03-0.48,1.56-0.63c0.52-0.14,1.05-0.22,1.57-0.27
						c1.05-0.09,2.1-0.04,3.12,0.12c0.17,0.03,0.28,0.19,0.26,0.35c-0.03,0.16-0.17,0.27-0.33,0.26c-0.99-0.07-1.98-0.04-2.94,0.12
						c-0.48,0.09-0.95,0.2-1.39,0.36c-0.43,0.15-0.9,0.37-1.2,0.59l-0.03,0.02c-0.25,0.18-0.6,0.13-0.78-0.12
						c-0.18-0.25-0.13-0.6,0.12-0.78C127.24,313.39,127.25,313.38,127.27,313.37z"/>
				</g>
			</g>
			<g>
				<path class="st46" d="M129.52,324.54c-1.25-0.42-2.53-0.73-3.81-0.93c-1.28-0.19-2.55-0.32-3.83-0.28
					c-0.64,0.02-1.28,0.02-1.92,0.11l-0.96,0.09c-0.32,0.05-0.63,0.12-0.96,0.16c-0.65,0.08-1.27,0.26-1.93,0.38
					c-0.65,0.14-1.28,0.34-1.96,0.46l-0.02,0c-0.13,0.02-0.25-0.06-0.27-0.19c-0.02-0.09,0.02-0.18,0.09-0.23
					c1.13-0.81,2.38-1.47,3.73-1.88c1.33-0.47,2.76-0.64,4.18-0.69c1.42-0.02,2.85,0.19,4.2,0.61c1.35,0.42,2.64,1.03,3.73,1.97
					c0.1,0.09,0.12,0.25,0.03,0.35c-0.07,0.08-0.18,0.1-0.27,0.07L129.52,324.54z"/>
			</g>
		</g>
		<g>
			
				<ellipse transform="matrix(0.7071 -0.7071 0.7071 0.7071 -135.817 119.2773)" class="st5" cx="76.07" cy="223.58" rx="11.79" ry="11.79"/>
			<linearGradient id="SVGID_45_" gradientUnits="userSpaceOnUse" x1="66.4507" y1="223.5843" x2="85.6931" y2="223.5843">
				<stop  offset="0" style="stop-color:#FFDB43"/>
				<stop  offset="0.0149" style="stop-color:#FFD842"/>
				<stop  offset="0.2137" style="stop-color:#FFB33A"/>
				<stop  offset="0.4132" style="stop-color:#FF9734"/>
				<stop  offset="0.6115" style="stop-color:#FF8230"/>
				<stop  offset="0.8077" style="stop-color:#FF762D"/>
				<stop  offset="1" style="stop-color:#FF722C"/>
			</linearGradient>
			<circle class="st47" cx="76.07" cy="223.58" r="9.62"/>
			<g>
				<path class="st46" d="M73.35,222.66c0,0.46-0.37,0.83-0.83,0.83s-0.83-0.37-0.83-0.83c0-0.46,0.37-0.83,0.83-0.83
					S73.35,222.2,73.35,222.66z"/>
				<g>
					<path class="st46" d="M73.02,222.37c-0.17-0.12-0.44-0.25-0.69-0.34c-0.25-0.09-0.52-0.16-0.79-0.21
						c-0.54-0.09-1.11-0.11-1.67-0.07c-0.1,0.01-0.18-0.07-0.19-0.16c-0.01-0.09,0.06-0.17,0.15-0.19c0.58-0.09,1.18-0.12,1.78-0.07
						c0.3,0.03,0.6,0.08,0.9,0.16c0.3,0.09,0.58,0.17,0.89,0.36c0.15,0.09,0.2,0.29,0.11,0.44c-0.09,0.15-0.29,0.2-0.44,0.11
						c-0.01,0-0.02-0.01-0.02-0.02L73.02,222.37z"/>
				</g>
			</g>
			<g>
				<path class="st46" d="M79.28,222.66c0,0.46,0.37,0.83,0.83,0.83c0.46,0,0.83-0.37,0.83-0.83c0-0.46-0.37-0.83-0.83-0.83
					C79.66,221.82,79.28,222.2,79.28,222.66z"/>
				<g>
					<path class="st46" d="M79.23,221.86c0.31-0.19,0.59-0.27,0.89-0.36c0.3-0.08,0.6-0.13,0.9-0.16c0.6-0.05,1.2-0.02,1.78,0.07
						c0.1,0.02,0.16,0.11,0.15,0.2c-0.01,0.09-0.1,0.15-0.19,0.15c-0.56-0.04-1.13-0.02-1.67,0.07c-0.27,0.05-0.54,0.11-0.79,0.21
						c-0.25,0.09-0.51,0.21-0.69,0.34l-0.02,0.01c-0.14,0.1-0.34,0.07-0.45-0.07c-0.1-0.14-0.07-0.34,0.07-0.45
						C79.22,221.87,79.23,221.86,79.23,221.86z"/>
				</g>
			</g>
			<g>
				<path class="st46" d="M80.52,228.21c-0.71-0.25-1.44-0.41-2.16-0.53c-0.73-0.11-1.45-0.18-2.18-0.16
					c-0.73,0.02-1.46,0.07-2.18,0.21c-0.73,0.12-1.45,0.3-2.21,0.48l-0.01,0c-0.07,0.02-0.14-0.03-0.16-0.1
					c-0.01-0.05,0.01-0.11,0.05-0.14c0.64-0.45,1.35-0.84,2.12-1.07c0.76-0.27,1.57-0.36,2.37-0.39c1.61,0,3.26,0.42,4.51,1.46
					c0.06,0.05,0.07,0.14,0.02,0.2c-0.04,0.05-0.1,0.06-0.16,0.04L80.52,228.21z"/>
			</g>
		</g>
		<linearGradient id="SVGID_46_" gradientUnits="userSpaceOnUse" x1="125.0066" y1="437.8725" x2="322.5201" y2="437.8725">
			<stop  offset="0" style="stop-color:#1E72C6"/>
			<stop  offset="0.1542" style="stop-color:#1C68B8"/>
			<stop  offset="0.4392" style="stop-color:#195AA3"/>
			<stop  offset="0.7225" style="stop-color:#175297"/>
			<stop  offset="1" style="stop-color:#164F93"/>
		</linearGradient>
		<ellipse class="st48" cx="223.76" cy="437.87" rx="98.76" ry="11.64"/>
		<g>
			
				<linearGradient id="SVGID_47_" gradientUnits="userSpaceOnUse" x1="133.3282" y1="123.8034" x2="151.9766" y2="123.8034" gradientTransform="matrix(-1 0 0 1 374.5906 0)">
				<stop  offset="0" style="stop-color:#FFE1E5"/>
				<stop  offset="0.2521" style="stop-color:#F8C5CD"/>
				<stop  offset="0.5042" style="stop-color:#F3B0BB"/>
				<stop  offset="0.7547" style="stop-color:#F0A4B1"/>
				<stop  offset="1" style="stop-color:#EFA0AD"/>
			</linearGradient>
			<path class="st49" d="M235.45,130.12c0,0-6.17-2.32-7.79-3.15c-1.78-0.91-5.49-3.33-4.99-5.03c0.93-3.16,12.44-4.37,12.44-4.37
				s3.49-0.41,4.95,0.59c1.46,1,1.2,9.88,1.2,9.88L235.45,130.12z"/>
			<g>
				
					<linearGradient id="SVGID_48_" gradientUnits="userSpaceOnUse" x1="328.8158" y1="185.2827" x2="340.6212" y2="185.2827" gradientTransform="matrix(0.7591 -0.651 0.651 0.7591 -147.8151 191.5445)">
					<stop  offset="0" style="stop-color:#97D3FF"/>
					<stop  offset="0.0101" style="stop-color:#95D2FF"/>
					<stop  offset="0.2099" style="stop-color:#70B8FC"/>
					<stop  offset="0.4104" style="stop-color:#54A4FA"/>
					<stop  offset="0.6096" style="stop-color:#3F96F8"/>
					<stop  offset="0.8068" style="stop-color:#338EF7"/>
					<stop  offset="1" style="stop-color:#2F8BF7"/>
				</linearGradient>
				<path class="st50" d="M236.55,118.97l-6.51,5.58c-0.68,0.58-1.7,0.5-2.28-0.17l-10.72-12.5c-0.58-0.68-0.5-1.7,0.17-2.28
					l6.51-5.58c0.68-0.58,1.7-0.5,2.28,0.17l10.72,12.5C237.31,117.37,237.23,118.39,236.55,118.97z"/>
				
					<linearGradient id="SVGID_49_" gradientUnits="userSpaceOnUse" x1="328.2419" y1="185.2826" x2="340.0472" y2="185.2826" gradientTransform="matrix(0.7591 -0.651 0.651 0.7591 -147.8151 191.5445)">
					<stop  offset="0" style="stop-color:#1E72C6"/>
					<stop  offset="0.1542" style="stop-color:#1C68B8"/>
					<stop  offset="0.4392" style="stop-color:#195AA3"/>
					<stop  offset="0.7225" style="stop-color:#175297"/>
					<stop  offset="1" style="stop-color:#164F93"/>
				</linearGradient>
				<path class="st51" d="M236.12,119.35l-6.51,5.58c-0.68,0.58-1.7,0.5-2.28-0.17l-10.72-12.5c-0.58-0.68-0.5-1.7,0.17-2.28
					l6.51-5.58c0.68-0.58,1.7-0.5,2.28,0.17l10.72,12.5C236.87,117.75,236.79,118.77,236.12,119.35z"/>
				
					<linearGradient id="SVGID_50_" gradientUnits="userSpaceOnUse" x1="328.8512" y1="184.2947" x2="339.4381" y2="184.2947" gradientTransform="matrix(0.7591 -0.651 0.651 0.7591 -147.8151 191.5445)">
					<stop  offset="0" style="stop-color:#FF722C"/>
					<stop  offset="0.1923" style="stop-color:#FF762D"/>
					<stop  offset="0.3885" style="stop-color:#FF8230"/>
					<stop  offset="0.5868" style="stop-color:#FF9734"/>
					<stop  offset="0.7863" style="stop-color:#FFB33A"/>
					<stop  offset="0.9851" style="stop-color:#FFD842"/>
					<stop  offset="1" style="stop-color:#FFDB43"/>
				</linearGradient>
				<path class="st52" d="M234.33,117.49l-6.28,5.39c-0.48,0.42-1.21,0.36-1.63-0.12l-9.26-10.79c-0.42-0.48-0.36-1.21,0.13-1.63
					l6.28-5.39c0.48-0.42,1.21-0.36,1.63,0.12l9.26,10.79C234.87,116.35,234.82,117.08,234.33,117.49z"/>
				<path class="st5" d="M232.45,120.77c0.21,0.24,0.18,0.6-0.06,0.81s-0.6,0.18-0.81-0.06c-0.21-0.24-0.18-0.6,0.06-0.81
					C231.88,120.5,232.24,120.53,232.45,120.77z"/>
			</g>
			
				<linearGradient id="SVGID_51_" gradientUnits="userSpaceOnUse" x1="148.2897" y1="121.393" x2="151.9314" y2="121.393" gradientTransform="matrix(-1 0 0 1 374.5906 0)">
				<stop  offset="0" style="stop-color:#FFE1E5"/>
				<stop  offset="0.2521" style="stop-color:#F8C5CD"/>
				<stop  offset="0.5042" style="stop-color:#F3B0BB"/>
				<stop  offset="0.7547" style="stop-color:#F0A4B1"/>
				<stop  offset="1" style="stop-color:#EFA0AD"/>
			</linearGradient>
			<path class="st53" d="M225.81,122.98c0.55-0.64,1.08-3.28-1.05-3.71c-1.52-0.31-2.07,2.32-2.1,2.67
				C222.63,122.3,224.42,124.58,225.81,122.98z"/>
			<g>
				
					<linearGradient id="SVGID_52_" gradientUnits="userSpaceOnUse" x1="134.4679" y1="116.1155" x2="150.0815" y2="116.1155" gradientTransform="matrix(-1 0 0 1 374.5906 0)">
					<stop  offset="0" style="stop-color:#FFE1E5"/>
					<stop  offset="0.2521" style="stop-color:#F8C5CD"/>
					<stop  offset="0.5042" style="stop-color:#F3B0BB"/>
					<stop  offset="0.7547" style="stop-color:#F0A4B1"/>
					<stop  offset="1" style="stop-color:#EFA0AD"/>
				</linearGradient>
				<path class="st54" d="M240.04,118.17c0,0-3.59,3.47-7.02,2.31c-0.3-0.23,0.2-1.49,0.2-1.49c-1.69,0.81-5.32,0.2-3.41-1.44
					c-0.86,0.08-3.53,0.25-3-0.91c0.53-1.16,3-2.32,3-2.32c-1.01,0.03-4.24,0.45-5.25-0.14c-0.88-1.32,7.16-4.22,9.46-1.62
					c0.81-0.1,1.74,0.8,1.82,1.62c1.14,0.07,2.42,0.95,2.57,2.11C239.05,116.44,240.47,117.19,240.04,118.17z"/>
				
					<linearGradient id="SVGID_53_" gradientUnits="userSpaceOnUse" x1="141.1479" y1="113.6773" x2="144.7676" y2="113.6773" gradientTransform="matrix(-1 0 0 1 374.5906 0)">
					<stop  offset="0" style="stop-color:#F9C0C8;stop-opacity:0"/>
					<stop  offset="1" style="stop-color:#F9C0C8"/>
				</linearGradient>
				<path class="st55" d="M229.82,114.33c0,0,1.94-0.82,3.62-1.3C233.44,113.03,231.44,113.21,229.82,114.33z"/>
				
					<linearGradient id="SVGID_54_" gradientUnits="userSpaceOnUse" x1="138.9534" y1="116.2013" x2="144.7676" y2="116.2013" gradientTransform="matrix(-1 0 0 1 374.5906 0)">
					<stop  offset="0" style="stop-color:#F9C0C8;stop-opacity:0"/>
					<stop  offset="1" style="stop-color:#F9C0C8"/>
				</linearGradient>
				<path class="st56" d="M229.82,117.56c0,0,4.19-1.92,5.81-2.72C235.64,114.84,232.65,115.65,229.82,117.56z"/>
				
					<linearGradient id="SVGID_55_" gradientUnits="userSpaceOnUse" x1="136.6466" y1="117.8152" x2="141.3245" y2="117.8152" gradientTransform="matrix(-1 0 0 1 374.5906 0)">
					<stop  offset="0" style="stop-color:#F9C0C8;stop-opacity:0"/>
					<stop  offset="1" style="stop-color:#F9C0C8"/>
				</linearGradient>
				<path class="st57" d="M233.27,118.99c0,0,3.05-1.55,4.68-2.35C237.94,116.64,236.09,117.08,233.27,118.99z"/>
			</g>
			
				<linearGradient id="SVGID_56_" gradientUnits="userSpaceOnUse" x1="231.4808" y1="431.4859" x2="275.6633" y2="431.4859" gradientTransform="matrix(1 0 -0.0175 1.0007 6.8031 -0.1351)">
				<stop  offset="0" style="stop-color:#1E72C6"/>
				<stop  offset="0.1542" style="stop-color:#1C68B8"/>
				<stop  offset="0.4392" style="stop-color:#195AA3"/>
				<stop  offset="0.7225" style="stop-color:#175297"/>
				<stop  offset="1" style="stop-color:#164F93"/>
			</linearGradient>
			<path class="st58" d="M230.78,429.03c0,0,1.2,5.24,3.14,5.24c1.94,0,36.26,0,37.53,0c1.28,0,3.77-1.52,3.44-3.7
				c-0.33-2.18-41.38,0.43-41.38,0.43L230.78,429.03z"/>
			
				<linearGradient id="SVGID_57_" gradientUnits="userSpaceOnUse" x1="240.6119" y1="419.3127" x2="240.6119" y2="402.2306" gradientTransform="matrix(1 0 -0.0175 1.0007 6.8031 -0.1351)">
				<stop  offset="0" style="stop-color:#FFE1E5"/>
				<stop  offset="0.301" style="stop-color:#FCD0D6"/>
				<stop  offset="0.6538" style="stop-color:#FAC4CC"/>
				<stop  offset="1" style="stop-color:#F9C0C8"/>
			</linearGradient>
			<path class="st59" d="M233.48,416.17c0,0,1.04-7.4,0.21-11.83c-0.83-4.43,10.32,0,10.32,0l1.81,1.91c0,0,0.21,7.43,0.99,9.61
				c0.78,2.18-10.82,3.61-10.82,3.61L233.48,416.17z"/>
			
				<linearGradient id="SVGID_58_" gradientUnits="userSpaceOnUse" x1="185.5166" y1="420.9479" x2="185.5166" y2="403.8659" gradientTransform="matrix(1 0 -0.0175 1.0007 6.8031 -0.1351)">
				<stop  offset="0" style="stop-color:#FFE1E5"/>
				<stop  offset="0.301" style="stop-color:#FCD0D6"/>
				<stop  offset="0.6538" style="stop-color:#FAC4CC"/>
				<stop  offset="1" style="stop-color:#F9C0C8"/>
			</linearGradient>
			<path class="st60" d="M178.29,418.72c0,0,1.11-8.31,0.28-12.74c-0.83-4.43,10.32,0,10.32,0l1.81,1.91c0,0,0.21,7.43,0.99,9.61
				s-10.82,3.61-10.82,3.61L178.29,418.72z"/>
			
				<linearGradient id="SVGID_59_" gradientUnits="userSpaceOnUse" x1="176.3866" y1="330.6532" x2="249.0571" y2="330.6532" gradientTransform="matrix(1 0 -0.0175 1.0007 6.8031 -0.1351)">
				<stop  offset="0" style="stop-color:#1E72C6"/>
				<stop  offset="0.1542" style="stop-color:#1C68B8"/>
				<stop  offset="0.4392" style="stop-color:#195AA3"/>
				<stop  offset="0.7225" style="stop-color:#175297"/>
				<stop  offset="1" style="stop-color:#164F93"/>
			</linearGradient>
			<path class="st61" d="M243.29,248.42c0,0,1.47,5.91,2.47,11.55c1,5.63,4.39,65.76,4.28,72.66c-0.12,6.9-3.63,66.89-3.02,74.09
				c-0.1,1.9-12.65,3.1-13.83-0.8c-1.18-3.9-7.9-38.49-7.86-46.93s-1.83-26.37-2.4-28.41c-0.58-2.04-7.03-33.93-7.03-33.93
				s-11.8,43.15-13.18,52.74c-1.93,13.46-4.83,20.3-6.59,29.59c-1.76,9.29-3.72,30.67-3.74,31.93c-0.04,2.23-11.04,3.59-14.27-0.23
				c0.92-11.72-0.42-39.91-1.09-47.8c-0.67-7.89,1.97-40.48,2.1-50.83c0.13-10.35,2.2-42.48,3.18-48.41
				c1.35-8.14,2.76-14.61,2.76-14.61L243.29,248.42z"/>
			<linearGradient id="SVGID_60_" gradientUnits="userSpaceOnUse" x1="217.7089" y1="408.5056" x2="217.7089" y2="248.4176">
				<stop  offset="0" style="stop-color:#164F93"/>
				<stop  offset="1" style="stop-color:#164F93;stop-opacity:0"/>
			</linearGradient>
			<path class="st62" d="M243.22,400.03c-0.91,4.11-6.73,4.86-10.87,2.02c0.38,1.93,0.67,3.3,0.85,3.88
				c1.18,3.9,13.72,2.7,13.83,0.8c-0.61-7.21,2.91-67.19,3.02-74.09c0.12-6.9-3.28-67.03-4.28-72.66c-1-5.63-2.47-11.55-2.47-11.55
				l-52.43,0.55l-5.48,4.21c0,0,17.67,12.94,56.21,10.49c0,0,3.27,45.75,3.06,62.3C244.44,342.51,244.3,395.13,243.22,400.03z"/>
			<linearGradient id="SVGID_61_" gradientUnits="userSpaceOnUse" x1="197.8647" y1="413.0815" x2="197.8647" y2="285.7239">
				<stop  offset="0" style="stop-color:#164F93"/>
				<stop  offset="1" style="stop-color:#164F93;stop-opacity:0"/>
			</linearGradient>
			<path class="st63" d="M186.29,405.62c-2.68,1.3-6.39,1.49-7.95,0.4c-0.05,1.74-0.13,3.31-0.23,4.66
				c3.24,3.82,14.23,2.45,14.27,0.23c0.02-1.25,1.98-22.64,3.74-31.93c1.76-9.29,4.65-16.13,6.59-29.59
				c1.38-9.59,13.18-52.74,13.18-52.74s0.12,0.57,0.31,1.55l1.41-12.48c0,0-20.36,53.24-21.58,60.46
				C194.81,353.4,190.38,403.65,186.29,405.62z"/>
			
				<linearGradient id="SVGID_62_" gradientUnits="userSpaceOnUse" x1="205.228" y1="154.528" x2="254.967" y2="154.528" gradientTransform="matrix(0.9623 -0.2895 0.2725 0.9579 -20.5811 82.1512)">
				<stop  offset="0" style="stop-color:#FFDB43"/>
				<stop  offset="0.0149" style="stop-color:#FFD842"/>
				<stop  offset="0.2137" style="stop-color:#FFB33A"/>
				<stop  offset="0.4132" style="stop-color:#FF9734"/>
				<stop  offset="0.6115" style="stop-color:#FF8230"/>
				<stop  offset="0.8077" style="stop-color:#FF762D"/>
				<stop  offset="1" style="stop-color:#FF722C"/>
			</linearGradient>
			<path class="st64" d="M216.03,144.25c8.37-2.57,18.22,3.04,24.41,10.8c5.34,6.69,8.37,14.31,9.71,16.51
				c-3.85-7.56-12.96-26.88-18.02-40.36c-1.08-2.89,8.54-8.18,10.85-5.46c2.31,2.72,32.79,36.59,30.41,62.72
				c-3.62,11.28-18.05,10.4-30.05,1.9C231.34,181.85,205.69,153.11,216.03,144.25z"/>
			<linearGradient id="SVGID_63_" gradientUnits="userSpaceOnUse" x1="213.6291" y1="161.0515" x2="273.5275" y2="161.0515">
				<stop  offset="0" style="stop-color:#FFDB43"/>
				<stop  offset="0.0149" style="stop-color:#FFD842"/>
				<stop  offset="0.2137" style="stop-color:#FFB33A"/>
				<stop  offset="0.4132" style="stop-color:#FF9734"/>
				<stop  offset="0.6115" style="stop-color:#FF8230"/>
				<stop  offset="0.8077" style="stop-color:#FF762D"/>
				<stop  offset="1" style="stop-color:#FF722C"/>
			</linearGradient>
			<path class="st65" d="M242.99,125.74c-0.17-0.2-0.38-0.35-0.62-0.47c-1.35,0.18-4.92,0.89-7.16,3.43
				c-1.67,1.9-0.48,7.67,0.75,12.03c4.99,11.86,11.2,24.93,14.2,30.83c-1.34-2.2-4.37-9.82-9.71-16.51
				c-6.19-7.76-16.05-13.37-24.41-10.8c-10.34,8.86,15.31,37.61,27.31,46.11c12,8.5,26.43,9.39,30.05-1.9
				C275.78,162.33,245.3,128.46,242.99,125.74z"/>
			<linearGradient id="SVGID_64_" gradientUnits="userSpaceOnUse" x1="259.647" y1="196.8286" x2="259.647" y2="128.9879">
				<stop  offset="0" style="stop-color:#FF722C"/>
				<stop  offset="1" style="stop-color:#FF722C;stop-opacity:0"/>
			</linearGradient>
			<path class="st66" d="M245.77,128.99c4.74,7.71,18.7,31.19,20.73,43.89c2.45,15.34,1.36,23.24-16.34,20.25
				c-1.18-0.2-2.16-0.32-3-0.37c11.08,6.15,23,5.81,26.24-4.3C275.42,166.28,253.78,138.54,245.77,128.99z"/>
			
				<linearGradient id="SVGID_65_" gradientUnits="userSpaceOnUse" x1="168.8481" y1="200.0457" x2="243.5085" y2="200.0457" gradientTransform="matrix(1 0 -0.0175 1.0007 6.8031 -0.1351)">
				<stop  offset="0" style="stop-color:#FF722C"/>
				<stop  offset="0.1923" style="stop-color:#FF762D"/>
				<stop  offset="0.3885" style="stop-color:#FF8230"/>
				<stop  offset="0.5868" style="stop-color:#FF9734"/>
				<stop  offset="0.7863" style="stop-color:#FFB33A"/>
				<stop  offset="0.9851" style="stop-color:#FFD842"/>
				<stop  offset="1" style="stop-color:#FFDB43"/>
			</linearGradient>
			<path class="st67" d="M204.74,140.87c10.61,0,20.97,3.5,28.87,10.45c3.1,2.73,5.85,5.98,7.12,9.59
				c2.76,7.82,2.5,28.32,2.26,39.99c-0.27,13.26,0.88,39.77,2.66,45.88c1.78,6.11-4.31,11.7-21.53,12.38
				c-17.22,0.68-41.21-2.93-41.37-7.06c-0.21-5.76,2.49-12.55,3.57-21.66c2.71-17.73-3.75-31.93-5.58-39
				c-3.74-12.47-9.09-32.57-7.54-39.63c1.55-7.07,17.61-10.08,26.11-10.64C201.11,140.95,202.94,140.87,204.74,140.87z"/>
			<linearGradient id="SVGID_66_" gradientUnits="userSpaceOnUse" x1="220.364" y1="259.2353" x2="220.364" y2="160.9091">
				<stop  offset="0" style="stop-color:#FF722C"/>
				<stop  offset="1" style="stop-color:#FF722C;stop-opacity:0"/>
			</linearGradient>
			<path class="st68" d="M243,200.89c0.24-11.66,0.49-32.16-2.26-39.99c1.06,20.21-0.52,76.2-5.1,87.59
				c-3.46,8.61-28.72,8.9-40.87,8.53c8.47,1.58,19.93,2.5,29.36,2.12c17.22-0.68,23.31-6.27,21.53-12.38
				C243.88,240.66,242.73,214.16,243,200.89z"/>
			
				<linearGradient id="SVGID_67_" gradientUnits="userSpaceOnUse" x1="181.4293" y1="194.6636" x2="181.4293" y2="166.5847" gradientTransform="matrix(1 0 -0.0175 1.0007 6.8031 -0.1351)">
				<stop  offset="0" style="stop-color:#FF722C;stop-opacity:0"/>
				<stop  offset="1" style="stop-color:#FF722C"/>
			</linearGradient>
			<path class="st69" d="M192.87,166.57l-7.9,6.31l-7.47,7.03c1.09,4.13,2.23,8.11,3.25,11.52c0.25,0.95,0.58,2.03,0.96,3.23
				C193.7,183.76,192.87,166.57,192.87,166.57z"/>
			
				<linearGradient id="SVGID_68_" gradientUnits="userSpaceOnUse" x1="201.1223" y1="155.1009" x2="201.1223" y2="141.9603" gradientTransform="matrix(1 0 -0.0175 1.0007 6.8031 -0.1351)">
				<stop  offset="0" style="stop-color:#1E72C6"/>
				<stop  offset="0.1542" style="stop-color:#1C68B8"/>
				<stop  offset="0.4392" style="stop-color:#195AA3"/>
				<stop  offset="0.7225" style="stop-color:#175297"/>
				<stop  offset="1" style="stop-color:#164F93"/>
			</linearGradient>
			<path class="st70" d="M194.44,141.92c-3.19,2.38,1.19,13.15,14.8,13.15c13.62,0,5.75-12.81,5.75-12.81L194.44,141.92z"/>
			
				<linearGradient id="SVGID_69_" gradientUnits="userSpaceOnUse" x1="132.4377" y1="192.4015" x2="189.0049" y2="192.4015" gradientTransform="matrix(1 0 -0.0175 1.0007 6.8031 -0.1351)">
				<stop  offset="0" style="stop-color:#FFDB43"/>
				<stop  offset="0.0149" style="stop-color:#FFD842"/>
				<stop  offset="0.2137" style="stop-color:#FFB33A"/>
				<stop  offset="0.4132" style="stop-color:#FF9734"/>
				<stop  offset="0.6115" style="stop-color:#FF8230"/>
				<stop  offset="0.8077" style="stop-color:#FF762D"/>
				<stop  offset="1" style="stop-color:#FF722C"/>
			</linearGradient>
			<path class="st71" d="M159.58,207.4c-0.79-2.09,25.61-21.05,28.57-25.81c11-17.66,0.76-39.35-8.6-35.94
				c-12.77,4.65-31.81,39.97-38.25,51.18c-5.47,7.03-7.86,18.06-3.56,21.61c2.73,2.25,28.82,18.51,30.85,20.99
				c2.86,1.07,11.42-8.6,8.92-10.99C175.98,226.98,160.37,209.49,159.58,207.4z"/>
			<g>
				<linearGradient id="SVGID_70_" gradientUnits="userSpaceOnUse" x1="160.3618" y1="208.6335" x2="160.3618" y2="208.6334">
					<stop  offset="0" style="stop-color:#FF722C"/>
					<stop  offset="1" style="stop-color:#FF722C;stop-opacity:0"/>
				</linearGradient>
				<polygon class="st72" points="160.36,208.63 160.36,208.63 160.36,208.63 				"/>
				<linearGradient id="SVGID_71_" gradientUnits="userSpaceOnUse" x1="171.4563" y1="239.5068" x2="171.4563" y2="214.2977">
					<stop  offset="0" style="stop-color:#FF722C"/>
					<stop  offset="1" style="stop-color:#FF722C;stop-opacity:0"/>
				</linearGradient>
				<path class="st73" d="M164.95,214.3c4.21,5.34,9.8,12.81,9.74,14.85c-0.09,2.98-2.06,8.48-6.35,10.02
					c0.1,0.1,0.19,0.19,0.25,0.26c2.86,1.07,11.42-8.6,8.92-10.99C176.54,227.51,169.88,220.11,164.95,214.3z"/>
			</g>
			
				<linearGradient id="SVGID_72_" gradientUnits="userSpaceOnUse" x1="168.7342" y1="234.3507" x2="196.7914" y2="234.3507" gradientTransform="matrix(1 0 -0.0175 1.0007 6.8031 -0.1351)">
				<stop  offset="0" style="stop-color:#FFE1E5"/>
				<stop  offset="0.301" style="stop-color:#FCD0D6"/>
				<stop  offset="0.6538" style="stop-color:#FAC4CC"/>
				<stop  offset="1" style="stop-color:#F9C0C8"/>
			</linearGradient>
			<path class="st74" d="M181.9,231.2c0,0,3.79-7.07,5.07-7.85c1.28-0.78,9.39-0.62,10.42-0.57c0.79,1.49-1.63,2.66-4.99,2.58
				c-3.37-0.07-3.37-0.07-3.37-0.07s-0.74,2.11-1.12,2.39c0,0,3.63,2.09,4.69,2.61c1.05,0.52,6.68,9.2,6.78,10.23
				c0,0-0.26,1.07-1.69,0.85c0,0-0.24,1-1.04,1.16c0,0-0.66,1.37-2.4,0.84c-1.74-0.53-6.63-3.59-7.31-3.62
				c-0.68-0.03-0.38,1.12,1.27,1.87c1.64,0.75,3.28,2.96,3.64,3.16c0.36,0.21-0.45,1.77-2.43,0.84c-1.97-0.93-5.37-1.67-5.85-1.57
				l-0.09,1.89c0,0-1.59,0.65-3.27-1.63c-0.38-0.51-1.08-1.15-1.95-1.84l-6.9-3.85c0,0,5.18-3.59,6.59-8.85L181.9,231.2z"/>
			<g>
				
					<linearGradient id="SVGID_73_" gradientUnits="userSpaceOnUse" x1="163.8225" y1="131.2455" x2="188.086" y2="131.2455" gradientTransform="matrix(-1 0 -0.0175 1.0007 381.3937 -0.1351)">
					<stop  offset="0" style="stop-color:#FFE1E5"/>
					<stop  offset="0.2521" style="stop-color:#F8C5CD"/>
					<stop  offset="0.5042" style="stop-color:#F3B0BB"/>
					<stop  offset="0.7547" style="stop-color:#F0A4B1"/>
					<stop  offset="1" style="stop-color:#EFA0AD"/>
				</linearGradient>
				<path class="st75" d="M194.44,141.92c0.03-1.46,0.23-13.37,0.29-16.56c0.06-3.19-3.37-14.11-3.37-14.11l24.09,5.41l-0.29,16.65
					l-0.16,8.95c-0.05,2.66,1.1,8.88-6.35,8.88C198.76,151.14,194.42,143.38,194.44,141.92z"/>
				
					<linearGradient id="SVGID_74_" gradientUnits="userSpaceOnUse" x1="163.9017" y1="125.2587" x2="188.086" y2="125.2587" gradientTransform="matrix(-1 0 -0.0175 1.0007 381.3937 -0.1351)">
					<stop  offset="0" style="stop-color:#F9C0C8;stop-opacity:0"/>
					<stop  offset="1" style="stop-color:#F9C0C8"/>
				</linearGradient>
				<path class="st76" d="M194.68,128.44c0.02-1.25,0.04-2.34,0.05-3.07c0.06-3.19-3.37-14.11-3.37-14.11l24.09,5.41l-0.29,16.65
					l-0.1,5.56c-1.27,0.28-2.68,0.36-4.25,0.2C201.15,138.07,196.71,132.8,194.68,128.44z"/>
				
					<linearGradient id="SVGID_75_" gradientUnits="userSpaceOnUse" x1="153.5335" y1="112.5139" x2="191.1479" y2="112.5139" gradientTransform="matrix(-1 0 -0.0175 1.0007 381.3937 -0.1351)">
					<stop  offset="0" style="stop-color:#FFE1E5"/>
					<stop  offset="0.301" style="stop-color:#FCD0D6"/>
					<stop  offset="0.6538" style="stop-color:#FAC4CC"/>
					<stop  offset="1" style="stop-color:#F9C0C8"/>
				</linearGradient>
				<path class="st77" d="M190.93,108.99c-0.32-3.64-0.34-7.3,0.43-10.05c1.96-7.03,10.09-10.49,17.4-10.49
					c7.31,0,17.02,2.81,16.8,15.24c-0.16,9.08,3.61,32.22-12.6,32.76c-17.07,0.57-19.98-14.06-19.98-14.06
					c-0.1-0.75-0.32-1.95-0.59-3.43C186.36,113.29,187.96,109.32,190.93,108.99z"/>
				<g>
					<linearGradient id="SVGID_76_" gradientUnits="userSpaceOnUse" x1="189.9923" y1="118.083" x2="189.9923" y2="113.3399">
						<stop  offset="0" style="stop-color:#F9C0C8;stop-opacity:0"/>
						<stop  offset="1" style="stop-color:#F9C0C8"/>
					</linearGradient>
					<path class="st78" d="M191.22,116.53c-1.21-1.14-2.09-2.2-2.74-3.19c0.37,1.34,1.31,2.95,3.02,4.74
						C191.42,117.61,191.32,117.09,191.22,116.53z"/>
					<linearGradient id="SVGID_77_" gradientUnits="userSpaceOnUse" x1="209.7616" y1="136.4674" x2="209.7616" y2="95.1307">
						<stop  offset="0" style="stop-color:#F9C0C8;stop-opacity:0"/>
						<stop  offset="1" style="stop-color:#F9C0C8"/>
					</linearGradient>
					<path class="st79" d="M225.56,103.69c0.06-3.62-0.73-6.4-2.05-8.56c0.6,1.72,0.92,3.74,0.88,6.12
						c-0.16,9.08,3.61,32.22-12.6,32.76c-10.59,0.35-15.73-5.14-18.11-9.36c1.61,4.08,6.44,12.23,19.27,11.81
						C229.18,135.91,225.4,112.77,225.56,103.69z"/>
				</g>
				<g>
					<g>
						<path class="st15" d="M223.74,105.91c-1.03-0.02-2.02,0.47-2.88,1.05c-0.85,0.59-1.65,1.35-2.09,2.17l-0.01,0.01
							c-0.18,0.32-0.58,0.44-0.9,0.26c-0.32-0.18-0.44-0.58-0.26-0.9c0.02-0.03,0.04-0.06,0.05-0.08c0.78-1.03,1.75-1.68,2.78-2.21
							c0.52-0.26,1.06-0.47,1.62-0.61c0.56-0.14,1.16-0.21,1.75-0.1c0.11,0.02,0.18,0.13,0.16,0.24c-0.02,0.1-0.11,0.17-0.2,0.17
							L223.74,105.91z"/>
					</g>
					<g>
						<path class="st15" d="M202.73,107.04c0.57-0.12,1.13-0.1,1.68-0.05c0.55,0.06,1.1,0.17,1.64,0.33
							c1.07,0.33,2.15,0.84,2.98,1.82l0,0c0.24,0.28,0.2,0.7-0.08,0.93c-0.28,0.24-0.7,0.2-0.93-0.08
							c-0.02-0.03-0.04-0.06-0.06-0.08c-0.46-0.76-1.29-1.36-2.21-1.79c-0.91-0.41-1.96-0.72-2.95-0.69l-0.02,0
							c-0.11,0-0.21-0.08-0.21-0.19C202.57,107.15,202.64,107.06,202.73,107.04z"/>
					</g>
					<g>
						<path class="st15" d="M209.01,127.07c0.68-0.58,1.49-0.97,2.33-1.26c0.84-0.29,1.73-0.45,2.62-0.48
							c0.89-0.01,1.79,0.05,2.64,0.3c0.86,0.2,1.67,0.58,2.43,1.01c0.05,0.03,0.07,0.1,0.04,0.15c-0.02,0.04-0.07,0.06-0.12,0.05
							l-0.01,0c-0.84-0.21-1.65-0.41-2.48-0.52c-0.82-0.14-1.65-0.16-2.48-0.15c-0.83,0.01-1.65,0.14-2.46,0.31
							c-0.81,0.18-1.62,0.44-2.39,0.78l-0.01,0c-0.06,0.03-0.13,0-0.15-0.06C208.95,127.16,208.97,127.1,209.01,127.07z"/>
					</g>
					<path class="st15" d="M214.18,120.02c0.88-0.04,1.7-0.31,2.4-0.76c-0.21,1.12-1.18,2-2.36,2.05c-1.18,0.05-2.19-0.74-2.46-1.84
						C212.47,119.86,213.3,120.06,214.18,120.02z"/>
				</g>
			</g>
			
				<linearGradient id="SVGID_78_" gradientUnits="userSpaceOnUse" x1="240.1881" y1="172.8933" x2="253.7041" y2="172.8933" gradientTransform="matrix(1 0 -0.0175 1.0007 6.8031 -0.1351)">
				<stop  offset="0" style="stop-color:#FF722C"/>
				<stop  offset="1" style="stop-color:#FF722C;stop-opacity:0"/>
			</linearGradient>
			<path class="st80" d="M247.94,167.27c0,0,6.48,12.94,9.32,18.08c0,0-9.54-6.39-13.08-24.96L247.94,167.27z"/>
			
				<linearGradient id="SVGID_79_" gradientUnits="userSpaceOnUse" x1="175.1863" y1="425.9509" x2="196.5029" y2="425.9509" gradientTransform="matrix(1 0 -0.0175 1.0007 6.8031 -0.1351)">
				<stop  offset="0" style="stop-color:#FF722C"/>
				<stop  offset="0.1923" style="stop-color:#FF762D"/>
				<stop  offset="0.3885" style="stop-color:#FF8230"/>
				<stop  offset="0.5868" style="stop-color:#FF9734"/>
				<stop  offset="0.7863" style="stop-color:#FFB33A"/>
				<stop  offset="0.9851" style="stop-color:#FFD842"/>
				<stop  offset="1" style="stop-color:#FFDB43"/>
			</linearGradient>
			<path class="st81" d="M182.32,416.19c-0.76,0.17-3.99,0.63-4.76,1.38c-0.77,0.75-2.83,15.73-3.1,16.9
				c-0.27,1.17,0.26,1.89,0.26,1.89h20.96l-0.4-8.51c0,0-2.28-10.95-3.95-11.66C189.67,415.47,182.32,416.19,182.32,416.19z"/>
			
				<linearGradient id="SVGID_80_" gradientUnits="userSpaceOnUse" x1="175.5459" y1="431.0702" x2="203.5863" y2="431.0702" gradientTransform="matrix(1 0 -0.0175 1.0007 6.8031 -0.1351)">
				<stop  offset="0" style="stop-color:#FF722C"/>
				<stop  offset="0.1923" style="stop-color:#FF762D"/>
				<stop  offset="0.3885" style="stop-color:#FF8230"/>
				<stop  offset="0.5868" style="stop-color:#FF9734"/>
				<stop  offset="0.7863" style="stop-color:#FFB33A"/>
				<stop  offset="0.9851" style="stop-color:#FFD842"/>
				<stop  offset="1" style="stop-color:#FFDB43"/>
			</linearGradient>
			<path class="st82" d="M174.72,436.36c0.06-3.4,5.25-10.25,15.39-10.25c10.14,0,12.65,10.25,12.65,10.25H174.72z"/>
			
				<linearGradient id="SVGID_81_" gradientUnits="userSpaceOnUse" x1="314.1835" y1="423.217" x2="359.3002" y2="423.217" gradientTransform="matrix(-1 0 -0.0175 1.0007 596.9624 -0.1351)">
				<stop  offset="0" style="stop-color:#FF722C"/>
				<stop  offset="0.1923" style="stop-color:#FF762D"/>
				<stop  offset="0.3885" style="stop-color:#FF8230"/>
				<stop  offset="0.5868" style="stop-color:#FF9734"/>
				<stop  offset="0.7863" style="stop-color:#FFB33A"/>
				<stop  offset="0.9851" style="stop-color:#FFD842"/>
				<stop  offset="1" style="stop-color:#FFDB43"/>
			</linearGradient>
			<path class="st83" d="M232.88,416.01c0,0,8.43,2.5,13.58-0.64c1.4-0.52,3.72,3.08,6.64,4.99c2.92,1.92,16.05,1.22,19.04,2.5
				c2.99,1.28,4.97,7.82,0.6,8.57h-40.14c-2.98-2.09-2.37-3.87-2.36-5.87C230.25,423.56,233.19,419.26,232.88,416.01z"/>
			
				<linearGradient id="SVGID_82_" gradientUnits="userSpaceOnUse" x1="175.3514" y1="437.7012" x2="204.1651" y2="437.7012" gradientTransform="matrix(1 0 -0.0175 1.0007 6.8031 -0.1351)">
				<stop  offset="0" style="stop-color:#1E72C6"/>
				<stop  offset="0.1542" style="stop-color:#1C68B8"/>
				<stop  offset="0.4392" style="stop-color:#195AA3"/>
				<stop  offset="0.7225" style="stop-color:#175297"/>
				<stop  offset="1" style="stop-color:#164F93"/>
			</linearGradient>
			<path class="st84" d="M202.38,439.39h-27.02c-0.5,0-0.89-0.4-0.88-0.9l0.03-1.95c0-0.1,0.08-0.18,0.18-0.18h28.06
				c0.32,0,0.58,0.26,0.57,0.58l-0.03,1.55C203.29,438.98,202.88,439.39,202.38,439.39z"/>
			
				<linearGradient id="SVGID_83_" gradientUnits="userSpaceOnUse" x1="217.6234" y1="296.5838" x2="217.6234" y2="270.9153" gradientTransform="matrix(1 0 -0.0175 1.0007 6.8031 -0.1351)">
				<stop  offset="0" style="stop-color:#164F93"/>
				<stop  offset="1" style="stop-color:#164F93;stop-opacity:0"/>
			</linearGradient>
			<path class="st85" d="M215.89,296.66c0,0,3.48-11.96,3.59-12.57c0.11-0.61,2.51-13.12,2.51-13.12s0.8,8.47,0.82,11.31
				c0.06,7.09-1.96,9.12-5.61,12.99L215.89,296.66z"/>
			
				<linearGradient id="SVGID_84_" gradientUnits="userSpaceOnUse" x1="243.6701" y1="307.157" x2="243.6701" y2="298.4948" gradientTransform="matrix(0.8512 0.5248 -0.54 0.8426 176.2488 -88.8596)">
				<stop  offset="0" style="stop-color:#164F93"/>
				<stop  offset="1" style="stop-color:#164F93;stop-opacity:0"/>
			</linearGradient>
			<path class="st86" d="M215.89,296.66c0,0,4.06-2.24,4.23-2.37c0.17-0.14,3.73-2.9,3.73-2.9s-1.05,2.71-1.54,3.53
				c-1.22,2.06-2.71,1.94-5.44,1.79L215.89,296.66z"/>
			<linearGradient id="SVGID_85_" gradientUnits="userSpaceOnUse" x1="183.5956" y1="103.6367" x2="228.7439" y2="103.6367">
				<stop  offset="0" style="stop-color:#1E72C6"/>
				<stop  offset="0.1542" style="stop-color:#1C68B8"/>
				<stop  offset="0.4392" style="stop-color:#195AA3"/>
				<stop  offset="0.7225" style="stop-color:#175297"/>
				<stop  offset="1" style="stop-color:#164F93"/>
			</linearGradient>
			<path class="st87" d="M222.42,86.94c7.63-4.19,0.23-12.47-9.94-9.61c-6.95,1.95-12.92,7.25-16.01,10.41
				c-1.07,1.09-2.76,1.27-4.02,0.4c-0.76-0.53-1.82-0.99-3.24-1.11c0,0,1.74,0.93,3.41,2.9c-5.97-0.03-11.82,11.15-7.58,20.08
				c0.55,3.4,9.17,13.21,7.82,20.05c0,0,0.8,1.19,1.79-0.26l0.06-3.36c0,0-1.67-2.79-2.03-7.52c0,0-4.8-3.88-4.01-8.04
				c0.04-0.33,0.24-0.76,0.68-1.15c0.87-0.76,2.14-0.78,3.16-0.27c0.84,0.42,1.83,1.21,2.5,2.68c0,0,1.88-5.23,0.56-8.91
				c0,0,1.33,2.86,2.01,7.64c0,0,0.97-5.54,0.53-6.69c0,0,0.5,0.67,0.92,2.63c0,0,3.07-6.34-1.67-9.71
				c4.65-0.15,14.07,10.22,24.39,4.29c1.14-0.87,3.09-3.68,2.49-6.08C229.71,96.75,231.39,88.17,222.42,86.94z"/>
			<linearGradient id="SVGID_86_" gradientUnits="userSpaceOnUse" x1="153.1414" y1="207.519" x2="153.1414" y2="206.1982">
				<stop  offset="0" style="stop-color:#FF722C"/>
				<stop  offset="1" style="stop-color:#FF722C;stop-opacity:0"/>
			</linearGradient>
			<path class="st88" d="M159.58,207.4c0,0-7.26,0.55-12.88-0.73C146.7,206.67,153.36,205.22,159.58,207.4z"/>
			
				<linearGradient id="SVGID_87_" gradientUnits="userSpaceOnUse" x1="120.895" y1="180.4275" x2="120.895" y2="179.1067" gradientTransform="matrix(0.5932 -0.4116 0.5701 0.8216 -18.7487 111.67)">
				<stop  offset="0" style="stop-color:#FF722C"/>
				<stop  offset="1" style="stop-color:#FF722C;stop-opacity:0"/>
			</linearGradient>
			<path class="st89" d="M159.58,207.4c0,0-3.99,3.44-8.06,4.71C151.53,212.11,154.65,208.17,159.58,207.4z"/>
			
				<linearGradient id="SVGID_88_" gradientUnits="userSpaceOnUse" x1="167.2795" y1="222.2209" x2="167.2795" y2="220.8999" gradientTransform="matrix(0.3418 0.2462 -0.5845 0.8114 229.8179 -15.5198)">
				<stop  offset="0" style="stop-color:#FF722C"/>
				<stop  offset="1" style="stop-color:#FF722C;stop-opacity:0"/>
			</linearGradient>
			<path class="st90" d="M159.38,207.46c0,0-2.8-1.34-3.98-3.76C155.4,203.7,158.53,204.16,159.38,207.46z"/>
			<path class="st15" d="M205.85,110.02c-0.16,0.01-0.31,0.04-0.45,0.08c0.17,0.15,0.28,0.36,0.28,0.6c0,0.45-0.36,0.81-0.81,0.81
				c-0.28,0-0.51-0.15-0.66-0.36c-0.1,0.24-0.16,0.5-0.15,0.78c0.03,1.01,0.87,1.8,1.88,1.76c1.01-0.04,1.82-0.9,1.79-1.92
				C207.71,110.76,206.86,109.97,205.85,110.02z"/>
			<path class="st15" d="M220.71,108.67c-0.49,0.02-0.92,0.23-1.24,0.55c0.04-0.01,0.08-0.03,0.13-0.03c0.45,0,0.81,0.36,0.81,0.81
				c0,0.45-0.36,0.81-0.81,0.81c-0.29,0-0.52-0.16-0.67-0.38c0,0.05-0.01,0.09-0.01,0.14c0.03,1.01,0.87,1.8,1.88,1.76
				c1.01-0.04,1.82-0.9,1.79-1.92C222.57,109.42,221.73,108.63,220.71,108.67z"/>
			
				<linearGradient id="SVGID_89_" gradientUnits="userSpaceOnUse" x1="210.9723" y1="126.2497" x2="215.7987" y2="126.2497" gradientTransform="matrix(0.999 -0.0441 0.0441 0.999 -4.5776 11.0486)">
				<stop  offset="0" style="stop-color:#F9C0C8;stop-opacity:0"/>
				<stop  offset="1" style="stop-color:#F9C0C8"/>
			</linearGradient>
			<path class="st91" d="M211.76,128.04c0,0,3.02-1.29,4.83-0.08L211.76,128.04z"/>
			<g class="st92">
				<path class="st93" d="M186.84,274.08c0,0-5.31,45.35-4.7,50.45c0.61,5.11,7.86-1.02,8.58,4.49
					c0.71,5.51-12.43,23.01-10.17,44.39"/>
			</g>
			<g>
				<path class="st94" d="M221.15,303.7c0,0,3.68,29.28,5.58,32.68c1.91,3.4,5.31-5.58,6.74-0.95c1.43,4.63-6.74,15.93-4.7,30.09
					c2.04,14.16,4.7,28.87,4.7,28.87"/>
				<path class="st94" d="M181.32,147.85c-2.76,0.82-31.46,36.36-32.68,40.24c-1.23,3.88,5.62,1.23,5.62,3.37
					c0,2.14-16.34,12.27-14.2,20.65"/>
				<path class="st94" d="M237.94,137.57c0,0,6.39,17.12,9.25,22.33c2.86,5.21,4.7,0,6.43,1.94c1.74,1.94,0.2,11.44,2.45,13.89"/>
			</g>
		</g>
	</g>
</g>
</svg>
